<svg width="164" height="79" viewBox="0 0 164 79" fill="none" xmlns="http://www.w3.org/2000/svg">
<g clip-path="url(#clip0_3208_4872)">
<path d="M62.1798 0.420898H2.51562V60.0851H62.1798V0.420898Z" fill="#005DAC"/>
<path d="M145.489 30.2978C145.489 25.0022 141.534 21.0527 136.233 21.0527C130.932 21.0527 126.977 25.0022 126.977 30.2978C126.977 35.5934 130.932 39.5429 136.233 39.5429C141.534 39.5429 145.489 35.5934 145.489 30.2978ZM143.924 30.2978C143.924 34.7857 140.676 38.0636 136.233 38.0636C131.789 38.0636 128.559 34.7857 128.559 30.2978C128.559 25.8099 131.789 22.5321 136.233 22.5321C140.676 22.5321 143.924 25.8099 143.924 30.2978ZM133.724 35.474V26.4455H132.142C131.367 26.4455 131.065 26.7313 131.065 27.539V35.474H133.724ZM138.756 35.474H141.398V27.539C141.398 26.7313 141.095 26.4455 140.321 26.4455H138.756V35.474ZM137.579 35.474V25.2687C137.579 24.461 137.276 24.1918 136.485 24.1918H134.096V25.3186H134.246C134.784 25.3186 134.901 25.4518 134.901 26.1096V35.474H137.576H137.579Z" fill="#005DAC"/>
<path d="M74.3645 35.4748L75.2388 32.5662H78.672L79.4797 35.4748H82.677L79.513 24.398C79.327 23.743 78.9246 23.4404 78.2335 23.4404H73.74V24.4812H74.1091C74.581 24.4812 74.8335 24.6672 74.8335 25.0197C74.8335 25.2556 74.7836 25.4554 74.5976 25.9939L71.4336 35.4748H74.3617H74.3645ZM78.2363 30.5984H75.6939L77.0567 26.177L78.2363 30.5984Z" fill="#005DAC"/>
<path d="M86.3284 35.4747V24.3617C86.3284 23.7733 85.9926 23.4375 85.4375 23.4375H82.6426V24.4811H82.8285C83.3004 24.4811 83.5002 24.6837 83.5002 25.1527V35.4747H86.3284Z" fill="#005DAC"/>
<path d="M91.1573 35.4747V24.3617C91.1573 23.7733 90.8215 23.4375 90.247 23.4375H87.4688V24.4811H87.6381C88.1265 24.4811 88.3125 24.6837 88.3125 25.1527V35.4747H91.1573Z" fill="#005DAC"/>
<path d="M96.0568 35.4753V27.3709C96.0568 26.7992 95.7043 26.4467 95.1492 26.4467H92.4043V27.4736H92.5736C93.0288 27.4736 93.2286 27.6929 93.2286 28.162V35.4753H96.0568ZM96.1068 24.5316C96.1068 23.724 95.5184 23.2383 94.4748 23.2383C93.4312 23.2383 92.8595 23.7268 92.8595 24.5316C92.8595 25.3365 93.4645 25.8417 94.4748 25.8417C95.4851 25.8417 96.1068 25.3532 96.1068 24.5316Z" fill="#005DAC"/>
<path d="M98.4462 29.0352C99.3871 28.58 100.431 28.3302 101.241 28.3302C101.999 28.3302 102.268 28.5994 102.268 29.3904V29.593C101.108 29.779 100.753 29.8456 100.098 29.9955C99.7285 30.0788 99.3732 30.1981 99.0374 30.3313C97.8939 30.7865 97.3555 31.6774 97.3555 33.0207C97.3555 34.736 98.0965 35.5769 99.6286 35.5769C100.2 35.5769 100.705 35.4604 101.161 35.2911C101.546 35.1051 101.782 34.9552 102.374 34.5001V34.6333C102.374 35.1884 102.659 35.4743 103.214 35.4743H105.807V34.5001H105.674C105.185 34.5001 105.002 34.2808 105.002 33.7091V29.4043C105.002 27.1173 104.211 26.3291 101.921 26.3291C101.18 26.3291 100.456 26.4124 99.7507 26.5817C99.0429 26.7315 98.6738 26.8842 97.8328 27.3033L98.4546 29.0352H98.4462ZM102.268 31.1362V32.9014C101.796 33.3899 101.224 33.6758 100.736 33.6758C100.248 33.6758 100.045 33.4232 100.045 32.7515C100.045 32.0799 100.198 31.7773 100.7 31.5914C101.069 31.4249 101.558 31.2722 102.265 31.1362" fill="#005DAC"/>
<path d="M109.909 35.4742V29.371C110.381 28.8492 110.869 28.616 111.441 28.616C112.012 28.616 112.182 28.8519 112.182 29.7595V35.4742H114.993V29.3377C114.993 27.9083 114.893 27.4559 114.438 26.9841C114.052 26.565 113.478 26.3457 112.74 26.3457C111.629 26.3457 110.855 26.6815 109.812 27.6557V27.3032C109.812 26.7315 109.526 26.4456 108.937 26.4456H106.262V27.4725H106.431C106.903 27.4725 107.103 27.6918 107.103 28.1609V35.4742H109.914H109.909Z" fill="#005DAC"/>
<path d="M123.355 33.5933H119.417L123.186 28.3143V26.4492H117.296C116.622 26.4492 116.303 26.7517 116.303 27.4234V29.072H117.363V28.9027C117.363 28.5003 117.582 28.2977 118.018 28.2977H120.055L116.25 33.6266V35.475H123.352V33.5933H123.355Z" fill="#005DAC"/>
<path d="M145.489 30.2978C145.489 25.0022 141.534 21.0527 136.233 21.0527C130.932 21.0527 126.977 25.0022 126.977 30.2978C126.977 35.5934 130.932 39.5429 136.233 39.5429C141.534 39.5429 145.489 35.5934 145.489 30.2978ZM143.924 30.2978C143.924 34.7857 140.676 38.0636 136.233 38.0636C131.789 38.0636 128.559 34.7857 128.559 30.2978C128.559 25.8099 131.789 22.5321 136.233 22.5321C140.676 22.5321 143.924 25.8099 143.924 30.2978ZM133.724 35.474V26.4455H132.142C131.367 26.4455 131.065 26.7313 131.065 27.539V35.474H133.724ZM138.756 35.474H141.398V27.539C141.398 26.7313 141.095 26.4455 140.321 26.4455H138.756V35.474ZM137.579 35.474V25.2687C137.579 24.461 137.276 24.1918 136.485 24.1918H134.096V25.3186H134.246C134.784 25.3186 134.901 25.4518 134.901 26.1096V35.474H137.576H137.579Z" fill="#005DAC"/>
<path d="M74.3645 35.4748L75.2388 32.5662H78.672L79.4797 35.4748H82.677L79.513 24.398C79.327 23.743 78.9246 23.4404 78.2335 23.4404H73.74V24.4812H74.1091C74.581 24.4812 74.8335 24.6672 74.8335 25.0197C74.8335 25.2556 74.7836 25.4554 74.5976 25.9939L71.4336 35.4748H74.3617H74.3645ZM78.2363 30.5984H75.6939L77.0567 26.177L78.2363 30.5984Z" fill="#005DAC"/>
<path d="M96.0568 35.4753V27.3709C96.0568 26.7992 95.7043 26.4467 95.1492 26.4467H92.4043V27.4736H92.5736C93.0288 27.4736 93.2286 27.6929 93.2286 28.162V35.4753H96.0568ZM96.1068 24.5316C96.1068 23.724 95.5184 23.2383 94.4748 23.2383C93.4312 23.2383 92.8595 23.7268 92.8595 24.5316C92.8595 25.3365 93.4645 25.8417 94.4748 25.8417C95.4851 25.8417 96.1068 25.3532 96.1068 24.5316Z" fill="#005DAC"/>
<path d="M98.4462 29.0352C99.3871 28.58 100.431 28.3302 101.241 28.3302C101.999 28.3302 102.268 28.5994 102.268 29.3904V29.593C101.108 29.779 100.753 29.8456 100.098 29.9955C99.7285 30.0788 99.3732 30.1981 99.0374 30.3313C97.8939 30.7865 97.3555 31.6774 97.3555 33.0207C97.3555 34.736 98.0965 35.5769 99.6286 35.5769C100.2 35.5769 100.705 35.4604 101.161 35.2911C101.546 35.1051 101.782 34.9552 102.374 34.5001V34.6333C102.374 35.1884 102.659 35.4743 103.214 35.4743H105.807V34.5001H105.674C105.185 34.5001 105.002 34.2808 105.002 33.7091V29.4043C105.002 27.1173 104.211 26.3291 101.921 26.3291C101.18 26.3291 100.456 26.4124 99.7507 26.5817C99.0429 26.7315 98.6738 26.8842 97.8328 27.3033L98.4546 29.0352H98.4462ZM102.268 31.1362V32.9014C101.796 33.3899 101.224 33.6758 100.736 33.6758C100.248 33.6758 100.045 33.4232 100.045 32.7515C100.045 32.0799 100.198 31.7773 100.7 31.5914C101.069 31.4249 101.558 31.2722 102.265 31.1362" fill="#005DAC"/>
<path d="M123.355 33.5933H119.417L123.186 28.3143V26.4492H117.296C116.622 26.4492 116.303 26.7517 116.303 27.4234V29.072H117.363V28.9027C117.363 28.5003 117.582 28.2977 118.018 28.2977H120.055L116.25 33.6266V35.475H123.352V33.5933H123.355Z" fill="#005DAC"/>
<path d="M109.909 35.4742V29.371C110.381 28.8492 110.869 28.616 111.441 28.616C112.012 28.616 112.182 28.8519 112.182 29.7595V35.4742H114.993V29.3377C114.993 27.9083 114.893 27.4559 114.438 26.9841C114.052 26.565 113.478 26.3457 112.74 26.3457C111.629 26.3457 110.855 26.6815 109.812 27.6557V27.3032C109.812 26.7315 109.526 26.4456 108.937 26.4456H106.262V27.4725H106.431C106.903 27.4725 107.103 27.6918 107.103 28.1609V35.4742H109.914H109.909Z" fill="#005DAC"/>
<path d="M91.1573 35.4747V24.3617C91.1573 23.7733 90.8215 23.4375 90.247 23.4375H87.4688V24.4811H87.6381C88.1265 24.4811 88.3125 24.6837 88.3125 25.1527V35.4747H91.1573Z" fill="#005DAC"/>
<path d="M86.3284 35.4747V24.3617C86.3284 23.7733 85.9926 23.4375 85.4375 23.4375H82.6426V24.4811H82.8285C83.3004 24.4811 83.5002 24.6837 83.5002 25.1527V35.4747H86.3284Z" fill="#005DAC"/>
<path d="M6.6891 75.2328H3.45846C3.42515 75.2328 3.4085 75.2161 3.4085 75.1828V69.3987C3.4085 69.3488 3.35854 69.2988 3.30859 69.2988H2.6175C2.56754 69.2988 2.51758 69.3488 2.51758 69.3987V75.971C2.51758 76.021 2.56754 76.071 2.6175 76.071H6.69188C6.74184 76.071 6.79179 76.021 6.79179 75.971V75.3327C6.79179 75.2827 6.74184 75.2328 6.69188 75.2328" fill="#005DAC"/>
<path d="M8.86132 69.2988H8.17023C8.10362 69.2988 8.07031 69.3488 8.07031 69.3987V75.971C8.07031 76.021 8.10362 76.071 8.17023 76.071H8.86132C8.91128 76.071 8.96124 76.021 8.96124 75.971V69.3987C8.96124 69.3488 8.91128 69.2988 8.86132 69.2988Z" fill="#005DAC"/>
<path d="M15.0044 69.2988H10.93C10.8634 69.2988 10.8301 69.3488 10.8301 69.3987V75.971C10.8301 76.021 10.8634 76.071 10.93 76.071H11.6211C11.671 76.071 11.7043 76.021 11.7043 75.971V73.1984C11.7043 73.1484 11.7377 73.1317 11.771 73.1317H14.5131C14.5631 73.1317 14.613 73.0984 14.613 73.0318V72.4101C14.613 72.3435 14.5631 72.3102 14.5131 72.3102H11.771C11.7377 72.3102 11.7043 72.2936 11.7043 72.2436V70.1925C11.7043 70.1592 11.7377 70.1426 11.771 70.1426H15.0016C15.0516 70.1426 15.0849 70.0926 15.0849 70.0427V69.4043C15.0849 69.3543 15.0516 69.3044 15.0016 69.3044" fill="#005DAC"/>
<path d="M20.729 69.2988H16.6546C16.6046 69.2988 16.5547 69.3488 16.5547 69.3987V75.971C16.5547 76.021 16.6046 76.071 16.6546 76.071H20.729C20.7956 76.071 20.8289 76.021 20.8289 75.971V75.3327C20.8289 75.2827 20.7956 75.2328 20.729 75.2328H17.515C17.465 75.2328 17.4484 75.2161 17.4484 75.1828V73.1151C17.4484 73.0818 17.465 73.0651 17.515 73.0651H20.2405C20.3071 73.0651 20.3404 73.0318 20.3404 72.9652V72.3435C20.3404 72.2769 20.3071 72.2436 20.2405 72.2436H17.515C17.465 72.2436 17.4484 72.2269 17.4484 72.177V70.1925C17.4484 70.1592 17.465 70.1426 17.515 70.1426H20.729C20.7956 70.1426 20.8289 70.0926 20.8289 70.0427V69.4043C20.8289 69.3543 20.7956 69.3044 20.729 69.3044" fill="#005DAC"/>
<path d="M29.5783 72.4769H27.4079C27.3579 72.4769 27.3079 72.5102 27.3079 72.5768V73.1485C27.3079 73.2152 27.3579 73.2485 27.4079 73.2485H28.7207C28.7706 73.2485 28.7873 73.2651 28.7873 73.3151C28.7873 73.8202 28.7207 74.1394 28.6541 74.3753C28.4514 75.0137 27.8963 75.3495 27.2053 75.3495C26.4309 75.3495 25.9424 74.997 25.7398 74.342C25.6565 74.0894 25.6066 73.7203 25.6066 72.6767C25.6066 71.6331 25.6565 71.2807 25.7398 71.0281C25.9424 70.3731 26.4309 70.0206 27.2053 70.0206C27.913 70.0206 28.3654 70.3065 28.6874 70.9115C28.7207 70.9781 28.7706 70.9948 28.8234 70.9615L29.4284 70.6756C29.4784 70.6423 29.4784 70.5923 29.4617 70.5424C29.1092 69.7847 28.3848 69.1963 27.2053 69.1963C26.0257 69.1963 25.218 69.7347 24.8822 70.7755C24.7656 71.1613 24.7129 71.5665 24.7129 72.6739C24.7129 73.7814 24.7628 74.2032 24.8822 74.589C25.218 75.6326 26.059 76.1683 27.2053 76.1683C28.3515 76.1683 29.1758 75.5965 29.5117 74.5724C29.5949 74.2365 29.681 73.6814 29.681 73.0764V72.5712C29.681 72.5046 29.631 72.4713 29.5811 72.4713" fill="#005DAC"/>
<path d="M33.551 69.1992C32.4075 69.1992 31.5998 69.7377 31.2445 70.7785C31.1113 71.1642 31.0586 71.5695 31.0586 72.6797C31.0586 73.7898 31.1086 74.2089 31.2445 74.5947C31.597 75.6355 32.4047 76.174 33.551 76.174C34.6972 76.174 35.5021 75.6355 35.8574 74.5947C35.9739 74.2089 36.0267 73.8037 36.0267 72.6797C36.0267 71.5556 35.9767 71.167 35.8574 70.7785C35.5049 69.7349 34.6972 69.1992 33.551 69.1992ZM34.9803 74.3422C34.7777 74.9972 34.2892 75.3497 33.551 75.3497C32.8127 75.3497 32.3214 74.9972 32.1049 74.3422C32.0383 74.0896 31.9689 73.6538 31.9689 72.6769C31.9689 71.6999 32.0356 71.2808 32.1049 71.0282C32.3242 70.3732 32.796 70.0208 33.551 70.0208C34.3059 70.0208 34.7805 70.3732 34.9803 71.0282C35.0636 71.2808 35.133 71.7166 35.133 72.6769C35.133 73.6372 35.0664 74.0896 34.9803 74.3422Z" fill="#005DAC"/>
<path d="M40.1149 69.3987C40.0983 69.3488 40.0483 69.2988 39.9817 69.2988H39.3406C39.2573 69.2988 39.2406 69.3488 39.2073 69.3987L36.8676 75.971C36.851 76.021 36.8843 76.071 36.9342 76.071H37.6253C37.6919 76.071 37.7252 76.0377 37.7613 75.971L38.2831 74.4917H41.0086L41.5304 75.971C41.547 76.0377 41.597 76.071 41.6636 76.071H42.3547C42.4213 76.071 42.4546 76.021 42.4213 75.971L40.1149 69.3987ZM38.5662 73.6841L39.6431 70.6088H39.6597L40.72 73.6841H38.5662Z" fill="#005DAC"/>
<path d="M47.8746 75.2328H44.644C44.6107 75.2328 44.5941 75.2161 44.5941 75.1828V69.3987C44.5941 69.3488 44.5441 69.2988 44.4941 69.2988H43.803C43.7364 69.2988 43.7031 69.3488 43.7031 69.3987V75.971C43.7031 76.021 43.7364 76.071 43.803 76.071H47.8774C47.9274 76.071 47.9773 76.021 47.9773 75.971V75.3327C47.9773 75.2827 47.9274 75.2328 47.8774 75.2328" fill="#005DAC"/>
<path d="M51.7799 72.2411L51.4607 72.2078C50.4171 72.0552 50.0313 71.686 50.0313 71.1143C50.0313 70.4759 50.4865 70.0208 51.3108 70.0208C51.8992 70.0208 52.4044 70.1901 52.9428 70.5259C52.9928 70.5592 53.0427 70.5592 53.0955 70.5092L53.4313 69.9541C53.4646 69.9208 53.4479 69.8709 53.4146 69.8209C52.9095 69.4518 52.1351 69.1992 51.3441 69.1992C49.998 69.1992 49.1404 69.9736 49.1404 71.1837C49.1404 72.2439 49.8121 72.8656 51.1249 73.0488L51.4607 73.0988C52.5542 73.232 52.8734 73.6205 52.8734 74.1923C52.8734 74.8806 52.3183 75.3524 51.3913 75.3524C50.6003 75.3524 49.9259 74.9999 49.4901 74.6641C49.4402 74.6142 49.3902 74.6142 49.3541 74.6641L48.9156 75.1859C48.8823 75.2359 48.8823 75.2858 48.9156 75.3385C49.4207 75.7937 50.345 76.1795 51.3053 76.1795C52.9373 76.1795 53.7616 75.3219 53.7616 74.1451C53.7616 73.0349 53.1066 72.4299 51.7743 72.2467" fill="#005DAC"/>
<path d="M56.0529 75.0137H55.2952C55.2286 75.0137 55.1953 75.047 55.1953 75.1136V75.9712C55.1953 76.0212 55.2286 76.0545 55.2952 76.0545H56.0529C56.1029 76.0545 56.1529 76.0212 56.1529 75.9712V75.1136C56.1529 75.047 56.1029 75.0137 56.0529 75.0137Z" fill="#005DAC"/>
<path d="M62.6347 69.2995H60.3616C60.295 69.2995 60.2617 69.3495 60.2617 69.3994V75.9717C60.2617 76.0217 60.295 76.055 60.3616 76.055H62.6347C63.7782 76.055 64.5359 75.5832 64.8385 74.6256C64.955 74.2565 65.0244 73.8873 65.0244 72.6745C65.0244 71.4616 64.9578 71.1119 64.8385 70.74C64.5359 69.7824 63.7782 69.2939 62.6347 69.2939M63.9975 74.3037C63.7782 74.9587 63.2564 75.2279 62.4488 75.2279H61.2026C61.1693 75.2279 61.136 75.2112 61.136 75.1779V70.1849C61.136 70.1516 61.1693 70.1349 61.2026 70.1349H62.4488C63.2564 70.1349 63.7782 70.4041 63.9975 71.0591C64.0808 71.2951 64.1307 71.6309 64.1307 72.6717C64.1307 73.7125 64.0808 74.0677 63.9975 74.3037Z" fill="#005DAC"/>
<path d="M68.8956 69.1992C67.7688 69.1992 66.9445 69.7377 66.5892 70.7785C66.4727 71.1642 66.4199 71.5695 66.4199 72.6797C66.4199 73.7898 66.4699 74.2089 66.5892 74.5947C66.9417 75.6355 67.766 76.174 68.8956 76.174C70.0253 76.174 70.8468 75.6355 71.2021 74.5947C71.3353 74.2089 71.388 73.8037 71.388 72.6797C71.388 71.5556 71.338 71.167 71.2021 70.7785C70.8496 69.7349 70.0419 69.1992 68.8956 69.1992ZM70.3444 74.3422C70.1252 74.9972 69.6533 75.3497 68.8956 75.3497C68.1379 75.3497 67.6661 74.9972 67.4663 74.3422C67.383 74.0896 67.3136 73.6538 67.3136 72.6769C67.3136 71.6999 67.3802 71.2808 67.4663 71.0282C67.6689 70.3732 68.1574 70.0208 68.8956 70.0208C69.6339 70.0208 70.1252 70.3732 70.3444 71.0282C70.411 71.2808 70.4971 71.7166 70.4971 72.6769C70.4971 73.6372 70.4138 74.0896 70.3444 74.3422Z" fill="#005DAC"/>
<path d="M77.7461 69.2988H77.1244C77.0578 69.2988 77.0245 69.3488 77.0245 69.3987V74.4751H76.9912L73.9271 69.3987C73.8772 69.3321 73.8272 69.2988 73.7412 69.2988H73.1195C73.0528 69.2988 73.0195 69.3488 73.0195 69.3987V75.971C73.0195 76.021 73.0528 76.071 73.1195 76.071H73.7412C73.7911 76.071 73.8411 76.021 73.8411 75.971V70.9114H73.8744L76.9385 75.971C76.9884 76.0377 77.0384 76.071 77.1078 76.071H77.7461C77.8128 76.071 77.8461 76.021 77.8461 75.971V69.3987C77.8461 69.3488 77.8128 69.2988 77.7461 69.2988Z" fill="#005DAC"/>
<path d="M83.8931 69.2988H79.8187C79.7687 69.2988 79.7188 69.3488 79.7188 69.3987V75.971C79.7188 76.021 79.7687 76.071 79.8187 76.071H83.8931C83.943 76.071 83.993 76.021 83.993 75.971V75.3327C83.993 75.2827 83.943 75.2328 83.8931 75.2328H80.6624C80.6291 75.2328 80.6125 75.2161 80.6125 75.1828V73.1151C80.6125 73.0818 80.6291 73.0651 80.6624 73.0651H83.4046C83.4545 73.0651 83.5045 73.0318 83.5045 72.9652V72.3435C83.5045 72.2769 83.4545 72.2436 83.4046 72.2436H80.6624C80.6291 72.2436 80.6125 72.2269 80.6125 72.177V70.1925C80.6125 70.1592 80.6291 70.1426 80.6624 70.1426H83.8931C83.943 70.1426 83.993 70.0926 83.993 70.0427V69.4043C83.993 69.3543 83.943 69.3044 83.8931 69.3044" fill="#005DAC"/>
<path d="M86.2316 75.0137H85.4739C85.4239 75.0137 85.3906 75.047 85.3906 75.1136V75.9712C85.3906 76.0212 85.4239 76.0545 85.4739 76.0545H86.2316C86.2982 76.0545 86.3315 76.0212 86.3315 75.9712V75.1136C86.3315 75.047 86.2982 75.0137 86.2316 75.0137Z" fill="#005DAC"/>
<path fill-rule="evenodd" clip-rule="evenodd" d="M5.59766 56.9821V49.0332H12.6917C14.1544 49.0332 16.5108 49.2303 16.5108 51.1176C16.5108 52.0474 15.6892 52.7024 14.7317 52.9383C15.9168 53.2935 16.5108 53.9458 16.5108 54.8395C16.5108 56.7879 14.271 56.9738 12.6917 56.9821H5.59766ZM8.20104 53.6349L8.95319 52.4165C9.1114 52.1528 9.4722 51.9696 9.79693 51.9696H12.6917C13.2108 51.9696 13.6326 51.7365 13.6326 51.3368C13.6326 50.9372 13.2163 50.7068 12.6917 50.7068H8.20104V53.6377V53.6349ZM8.20104 53.6349V56.9821L8.95319 55.7609C9.1114 55.4973 9.4722 55.3141 9.79693 55.3141H12.6584C13.1997 55.3224 13.6299 54.9422 13.6299 54.4759C13.6299 54.0096 13.2108 53.6377 12.6584 53.6377H8.19827L8.20104 53.6349ZM22.8055 50.9483L19.289 56.9821H16.2277L21.1319 49.0332H24.4847L29.3862 56.9821H26.3221L25.5005 55.5639H20.9626L21.7148 54.3454C21.8702 54.079 22.2366 53.8958 22.5585 53.8958H24.5236L22.8055 50.9455V50.9483ZM44.1017 50.9483L40.5852 56.9821H37.5211L42.4225 49.0332H45.7753L50.674 56.9821H47.6154L46.7911 55.5639H42.256L43.0082 54.3454C43.1636 54.079 43.5272 53.8958 43.8491 53.8958H45.8169L44.0961 50.9455L44.1017 50.9483ZM34.1156 55.3113C34.7067 55.3113 35.1869 55.0254 35.1869 54.4481V49.036H37.7931V54.6924C37.7931 56.4076 36.6496 56.9849 35.148 56.9849H30.8128C30.488 56.9849 30.1244 56.799 29.969 56.5381L29.2141 55.3141H34.1128L34.1156 55.3113ZM55.4089 55.3113C56.0001 55.3113 56.483 55.0254 56.483 54.4481V49.036H59.0864V54.6924C59.0864 56.4076 57.9429 56.9849 56.4442 56.9849H52.1089C51.7869 56.9849 51.4206 56.799 51.2679 56.5381L50.513 55.3141H55.4117L55.4089 55.3113Z" fill="white"/>
<path d="M38.1329 30.1045C39.998 29.5522 41.605 28.0229 41.605 25.8608C41.605 21.4589 37.0116 21.001 34.1556 21.001H23.0898V39.5189H26.9616V24.9255H38.4826L37.2059 27.3984C37.2059 27.3984 36.9505 27.9618 36.0762 27.9285H31.8659C31.8659 27.9285 30.4809 27.9979 30.4115 29.727V33.6182C30.4115 33.6182 30.5281 32.1001 31.8076 31.9807L37.4418 31.9585L36.2289 34.3232C36.2289 34.3232 35.968 34.956 35.1714 34.9616L31.7881 35.0032C31.7881 35.0032 30.6308 35.0226 30.4032 36.5602V39.5189H34.1528C37.2392 39.505 41.6022 39.072 41.6022 34.5314C41.6022 32.4498 40.4559 30.9316 38.1301 30.1045" fill="white"/>
</g>
<defs>
<clipPath id="clip0_3208_4872">
<rect width="164" height="79" fill="white"/>
</clipPath>
</defs>
</svg>
