<svg width="20" height="20" viewBox="0 0 20 20" fill="none" xmlns="http://www.w3.org/2000/svg">
<path d="M9.99805 -0.00390625C4.48805 -0.00390625 -0.00195313 4.48609 -0.00195313 9.99609C-0.00195313 15.5061 4.48805 19.9961 9.99805 19.9961C15.508 19.9961 19.998 15.5061 19.998 9.99609C19.998 4.48609 15.508 -0.00390625 9.99805 -0.00390625ZM14.058 9.26609L10.528 12.7961C10.378 12.9461 10.188 13.0161 9.99805 13.0161C9.80805 13.0161 9.61805 12.9461 9.46805 12.7961L5.93805 9.26609C5.79857 9.12496 5.72035 8.93452 5.72035 8.73609C5.72035 8.53766 5.79857 8.34723 5.93805 8.20609C6.22805 7.91609 6.70805 7.91609 6.99805 8.20609L9.99805 11.2061L12.998 8.20609C13.288 7.91609 13.768 7.91609 14.058 8.20609C14.348 8.49609 14.348 8.96609 14.058 9.26609Z" fill="url(#paint0_linear_2818_32162)"/>
<defs>
<linearGradient id="paint0_linear_2818_32162" x1="9.99805" y1="-0.00390625" x2="9.99805" y2="19.9961" gradientUnits="userSpaceOnUse">
<stop stop-color="#FF834E"/>
<stop offset="1" stop-color="#FF5B15"/>
</linearGradient>
</defs>
</svg>
