<svg width="20" height="20" viewBox="0 0 20 20" fill="none" xmlns="http://www.w3.org/2000/svg">
<path d="M10 0.000976563C4.49 0.000976563 0 4.49098 0 10.001C0 15.511 4.49 20.001 10 20.001C15.51 20.001 20 15.511 20 10.001C20 4.49098 15.51 0.000976563 10 0.000976563ZM14.06 9.27098L10.53 12.801C10.38 12.951 10.19 13.021 10 13.021C9.81 13.021 9.62 12.951 9.47 12.801L5.94 9.27098C5.80052 9.12984 5.7223 8.93941 5.7223 8.74098C5.7223 8.54255 5.80052 8.35211 5.94 8.21098C6.23 7.92098 6.71 7.92098 7 8.21098L10 11.211L13 8.21098C13.29 7.92098 13.77 7.92098 14.06 8.21098C14.35 8.50098 14.35 8.97098 14.06 9.27098Z" fill="white"/>
</svg>
