<svg width="1440" height="920" viewBox="0 0 1440 920" fill="none" xmlns="http://www.w3.org/2000/svg">
<path opacity="0.1" d="M1240.96 444.245L1240.72 444.33L1150.04 566.44L968.956 627.409L968.712 627.494L878.04 749.604L696.951 810.573L696.707 810.658L606.034 932.767L484.291 973.764H487.942L607.011 933.671L607.255 933.585L697.928 811.476L879.016 750.507L879.26 750.422L969.933 628.312L1151.02 567.343L1151.27 567.258L1241.94 445.148L1423.03 384.179L1423.27 384.094L1482.93 303.737V301.284L1422.06 383.276L1240.97 444.245H1240.96ZM1218.3 428.984L1218.06 429.07L1127.39 551.179L946.297 612.148L946.053 612.234L855.381 734.343L674.292 795.312L674.048 795.398L583.375 917.507L416.302 973.764H419.953L584.352 918.41L584.596 918.325L675.269 796.216L856.357 735.234L856.602 735.149L947.274 613.039L1128.36 552.07L1128.61 551.985L1219.28 429.876L1400.37 368.906L1400.61 368.821L1482.93 257.943V255.49L1399.39 368.015L1218.3 428.984ZM1308.72 123.784L1218.05 245.894L1036.96 306.863L1036.71 306.948L946.041 429.058L764.952 490.027L764.708 490.112L674.048 612.221L492.959 673.191L492.715 673.276L402.055 795.385L220.967 856.355L220.722 856.44L133.627 973.751H135.458L221.943 857.258L403.032 796.289L403.276 796.203L493.936 674.094L675.025 613.125L675.269 613.039L765.929 490.93L947.018 429.961L947.262 429.876L1037.93 307.766L1219.02 246.797L1219.27 246.712L1309.94 124.602L1482.93 66.3556V65.1226L1308.96 123.699L1308.72 123.784ZM1331.39 139.045L1240.72 261.154L1059.63 322.123L1059.38 322.209L968.712 444.318L787.624 505.287L787.379 505.373L696.719 627.482L515.631 688.451L515.386 688.537L424.726 810.646L243.638 871.615L243.394 871.701L167.628 973.751H169.447L244.602 872.519L425.691 811.549L425.935 811.464L516.595 689.355L697.684 628.386L697.928 628.3L788.588 506.191L969.677 445.222L969.921 445.136L1060.59 323.027L1241.68 262.058L1241.93 261.972L1332.6 139.863L1482.92 89.2466V88.0135L1331.62 138.96L1331.38 139.045H1331.39ZM1444.72 581.7L1354.06 703.81L1172.97 764.779L1172.73 764.864L1082.06 886.973L900.967 947.943L900.723 948.028L881.617 973.751H883.448L901.944 948.846L1083.03 887.877L1083.28 887.791L1173.95 765.682L1355.04 704.713L1355.28 704.628L1445.94 582.518L1482.93 570.066V568.833L1444.97 581.615L1444.72 581.7ZM1467.39 596.973L1376.73 719.082L1195.64 780.052L1195.4 780.137L1104.73 902.246L923.638 963.215L923.394 963.301L915.63 973.764H917.461L924.615 964.119L1105.7 903.15L1105.95 903.064L1196.62 780.955L1377.71 719.986L1377.95 719.9L1468.61 597.791L1482.95 592.969V591.736L1467.65 596.888L1467.4 596.973H1467.39ZM1286.3 474.778L1286.06 474.864L1195.39 596.973L1014.3 657.942L1014.05 658.028L923.394 780.137L742.306 841.106L742.061 841.192L651.389 963.301L620.306 973.764H623.957L652.353 964.204L652.598 964.119L743.27 842.01L924.359 781.04L924.603 780.955L1015.28 658.846L1196.36 597.876L1196.61 597.791L1287.28 475.682L1468.37 414.713L1468.61 414.627L1482.95 395.338V392.884L1467.4 413.821L1286.32 474.791L1286.3 474.778ZM1263.63 459.506L1263.39 459.591L1172.72 581.7L991.627 642.669L991.383 642.755L900.711 764.864L719.622 825.833L719.378 825.919L628.706 948.028L552.293 973.764H555.943L629.682 948.932L629.926 948.846L720.599 826.737L901.687 765.768L901.932 765.682L992.592 643.573L1173.68 582.604L1173.92 582.518L1264.6 460.409L1445.69 399.44L1445.93 399.354L1482.92 349.531V347.078L1444.71 398.536L1263.62 459.506H1263.63ZM1422.05 200.1L1331.39 322.209L1150.3 383.178L1150.06 383.264L1059.4 505.373L878.308 566.342L878.064 566.427L787.392 688.537L606.303 749.506L606.059 749.591L515.386 871.701L334.298 932.67L334.054 932.755L303.618 973.751H305.449L335.275 933.573L516.363 872.604L516.607 872.519L607.28 750.409L788.368 689.44L788.612 689.355L879.285 567.245L1060.37 506.264L1060.62 506.179L1151.28 384.069L1332.37 323.1L1332.61 323.015L1423.28 200.905L1482.95 180.822V179.589L1422.31 200.002L1422.06 200.087L1422.05 200.1ZM1467.39 230.633L1376.73 352.742L1195.64 413.712L1195.4 413.797L1104.73 535.906L923.638 596.875L923.394 596.961L832.722 719.07L651.633 780.039L651.389 780.125L560.717 902.234L379.628 963.203L379.384 963.289L371.619 973.751H373.451L380.605 964.107L561.693 903.138L561.937 903.052L652.61 780.943L833.698 719.974L833.943 719.888L924.615 597.779L1105.7 536.81L1105.95 536.724L1196.62 414.615L1377.71 353.646L1377.95 353.56L1468.61 231.451L1482.95 226.629V225.396L1467.65 230.548L1467.4 230.633H1467.39ZM1444.72 215.36L1354.05 337.47L1172.96 398.439L1172.72 398.524L1082.04 520.633L900.955 581.603L900.711 581.688L810.038 703.797L628.95 764.767L628.706 764.852L538.033 886.961L356.945 947.93L356.701 948.016L337.594 973.739H339.426L357.921 948.834L539.01 887.852L539.254 887.767L629.926 765.658L811.015 704.689L811.259 704.603L901.932 582.494L1083.02 521.525L1083.26 521.439L1173.94 399.33L1355.03 338.349L1355.27 338.263L1445.93 216.154L1482.92 203.701V202.468L1444.95 215.25L1444.71 215.336L1444.72 215.36ZM1354.06 154.306L1263.39 276.415L1082.3 337.384L1082.06 337.47L991.395 459.579L810.307 520.548L810.063 520.633L719.403 642.743L538.314 703.724L538.07 703.81L447.41 825.919L266.321 886.888L266.077 886.973L201.641 973.764H203.472L267.298 887.791L448.386 826.822L448.63 826.737L539.303 704.628L720.391 643.646L720.636 643.561L811.296 521.451L992.384 460.47L992.628 460.385L1083.29 338.275L1264.38 277.306L1264.62 277.221L1355.29 155.111L1482.96 112.125V110.892L1354.33 154.208L1354.09 154.293L1354.06 154.306ZM1286.3 108.426L1286.06 108.512L1195.39 230.621L1014.3 291.59L1014.05 291.675L923.394 413.785L742.306 474.754L742.061 474.839L651.389 596.949L470.301 657.918L470.056 658.003L379.396 780.113L198.308 841.082L198.063 841.167L107.403 963.276L76.3204 973.739H79.9707L108.368 964.18L108.612 964.094L199.272 841.985L380.361 781.016L380.605 780.931L471.265 658.821L652.353 597.852L652.598 597.767L743.27 475.657L924.359 414.688L924.603 414.603L1015.28 292.493L1196.36 231.524L1196.61 231.439L1287.28 109.33L1468.36 48.3603L1468.6 48.2749L1482.93 28.9855V26.5315L1467.39 47.4691L1286.3 108.438V108.426ZM1376.72 169.566L1286.05 291.675L1104.96 352.645L1104.71 352.73L1014.05 474.839L832.966 535.809L832.722 535.894L742.061 658.003L560.973 718.972L560.729 719.058L470.056 841.167L288.968 902.136L288.724 902.222L235.617 973.739H237.448L289.945 903.04L471.033 842.071L471.277 841.985L561.95 719.876L743.038 658.907L743.282 658.821L833.943 536.712L1015.03 475.731L1015.28 475.645L1105.94 353.536L1287.02 292.567L1287.27 292.481L1377.94 170.372L1482.93 135.016V133.783L1376.96 169.469L1376.72 169.554V169.566ZM1422.05 566.44L1331.39 688.549L1150.3 749.518L1150.06 749.604L1059.4 871.713L878.308 932.682L878.064 932.767L847.628 973.764H849.459L879.285 933.585L1060.37 872.616L1060.62 872.531L1151.28 750.422L1332.37 689.452L1332.61 689.367L1423.27 567.258L1482.93 547.175V545.942L1422.29 566.354L1422.05 566.44ZM1444.72 32.1963L1263.63 93.1655L1263.39 93.2509L1172.72 215.36L991.627 276.329L991.383 276.415L900.711 398.524L719.622 459.493L719.378 459.579L628.706 581.688L447.617 642.657L447.373 642.743L356.701 764.852L175.612 825.821L175.368 825.907L84.7076 948.016L8.29469 973.739H11.945L85.6843 948.907L85.9285 948.822L176.589 826.712L357.677 765.743L357.921 765.658L448.582 643.548L629.67 582.579L629.914 582.494L720.587 460.385L901.675 399.415L901.919 399.33L992.58 277.221L1173.67 216.251L1173.91 216.166L1264.58 94.0567L1445.67 33.0875L1445.92 33.0021L1482.91 -16.8208V-19.2747L1444.7 32.1841L1444.72 32.1963ZM1399.39 184.839L1308.73 306.948L1127.64 367.93L1127.4 368.015L1036.74 490.124L855.649 551.106L855.405 551.191L764.733 673.301L583.644 734.282L583.4 734.367L492.727 856.477L311.639 917.446L311.395 917.531L269.63 973.788H271.449L312.616 918.349L493.704 857.38L493.948 857.295L584.621 735.185L765.709 674.216L765.953 674.131L856.626 552.021L1037.71 491.052L1037.96 490.967L1128.62 368.858L1309.71 307.888L1309.95 307.803L1400.61 185.694L1482.93 157.98V156.747L1399.64 184.79L1399.39 184.876V184.839ZM1354.06 886.986L1289.62 973.776H1291.46L1355.28 887.804L1482.95 844.818V843.584L1354.32 886.9L1354.07 886.986H1354.06ZM1376.72 902.246L1323.61 973.764H1325.44L1377.94 903.064L1482.93 867.708V866.475L1376.96 902.149L1376.72 902.234V902.246ZM1308.72 856.464L1221.61 973.776H1223.44L1309.94 857.282L1482.93 799.036V797.803L1308.96 856.379L1308.72 856.464ZM1399.39 917.519L1357.63 973.776H1359.46L1400.61 918.337L1482.93 890.624V889.391L1399.64 917.434L1399.39 917.519ZM1286.3 841.118L1286.06 841.204L1195.39 963.313L1164.3 973.776H1167.95L1196.35 964.217L1196.6 964.131L1287.27 842.022L1468.36 781.053L1468.6 780.967L1482.93 761.678V759.224L1467.39 780.161L1286.3 841.131V841.118ZM1467.39 963.313L1459.63 973.776H1461.46L1468.61 964.131L1482.95 959.309V958.076L1467.65 963.228L1467.4 963.313H1467.39ZM1444.72 948.04L1425.61 973.764H1427.45L1445.94 948.858L1482.93 936.406V935.173L1444.97 947.955L1444.72 948.04ZM1399.39 551.179L1308.73 673.288L1127.64 734.258L1127.4 734.343L1036.74 856.452L855.649 917.421L855.405 917.507L813.64 973.764H815.459L856.614 918.325L1037.7 857.356L1037.95 857.27L1128.61 735.161L1309.7 674.192L1309.94 674.106L1400.6 551.997L1482.92 524.284V523.051L1399.62 551.094L1399.38 551.179H1399.39ZM1422.05 932.78L1391.61 973.776H1393.45L1423.27 933.598L1482.93 913.515V912.282L1422.29 932.694L1422.05 932.78ZM1263.63 825.846L1263.39 825.931L1172.72 948.04L1096.3 973.764H1099.95L1173.69 948.932L1173.94 948.846L1264.61 826.737L1445.7 765.768L1445.94 765.682L1482.93 715.859V713.405L1444.72 764.864L1263.63 825.833V825.846ZM1331.39 505.385L1240.72 627.494L1059.63 688.463L1059.38 688.549L968.712 810.658L787.624 871.627L787.379 871.713L711.614 973.764H713.433L788.588 872.531L969.677 811.562L969.921 811.476L1060.58 689.367L1241.67 628.398L1241.91 628.312L1332.59 506.203L1482.91 455.587V454.354L1331.61 505.3L1331.37 505.385H1331.39ZM1376.72 535.906L1286.05 658.016L1104.96 718.985L1104.71 719.07L1014.05 841.179L832.966 902.149L832.722 902.234L779.615 973.751H781.446L833.943 903.052L1015.03 842.083L1015.28 841.997L1105.94 719.888L1287.02 658.919L1287.27 658.833L1377.94 536.724L1482.93 501.368V500.135L1376.96 535.821L1376.72 535.906ZM1354.06 520.646L1263.39 642.755L1082.3 703.724L1082.06 703.81L991.395 825.919L810.307 886.888L810.063 886.973L745.626 973.764H747.458L811.284 887.791L992.372 826.822L992.616 826.737L1083.28 704.628L1264.36 643.658L1264.61 643.573L1355.28 521.464L1482.95 478.478V477.244L1354.32 520.56L1354.07 520.646H1354.06ZM1308.72 490.124L1218.05 612.234L1036.96 673.203L1036.71 673.288L946.041 795.398L764.952 856.367L764.708 856.452L677.613 973.764H679.444L765.929 857.27L947.018 796.301L947.262 796.216L1037.93 674.106L1219.02 613.137L1219.27 613.052L1309.94 490.942L1482.93 432.696V431.463L1308.96 490.039L1308.72 490.124ZM1240.96 810.585L1240.72 810.67L1150.04 932.78L1028.3 973.776H1031.95L1151.02 933.683L1151.27 933.598L1241.94 811.488L1423.03 750.519L1423.27 750.434L1482.93 670.09V667.636L1422.06 749.628L1240.97 810.597L1240.96 810.585ZM1218.3 795.324L1218.06 795.41L1127.39 917.519L960.313 973.776H963.963L1128.36 918.422L1128.61 918.337L1219.28 796.228L1400.37 735.259L1400.61 735.173L1482.93 624.296V621.842L1399.39 734.355L1218.3 795.324ZM1331.39 871.725L1255.62 973.776H1257.46L1332.61 872.543L1482.93 821.927V820.694L1331.63 871.64L1331.39 871.725ZM63.2817 384.094L244.37 323.125L244.614 323.039L335.287 200.93L516.375 139.961L516.62 139.875L607.292 17.7659L788.38 -43.2033L788.625 -43.2888L796.401 -53.7637H794.582L787.416 -44.1068L606.327 16.8624L606.083 16.9479L515.411 139.057L334.322 200.026L334.078 200.112L243.406 322.221L62.3172 383.19L62.0731 383.276L-28.5994 505.385L-42.9321 510.207V511.44L-27.3907 506.203L63.2817 384.094ZM17.9516 536.736L108.624 414.627L289.713 353.658L289.957 353.573L380.617 231.463L561.705 170.494L561.95 170.409L652.61 48.2749L833.698 -12.6943L833.943 -12.7798L864.391 -53.7759H862.559L832.722 -13.5977L651.633 47.3714L651.389 47.4569L560.717 169.566L379.628 230.535L379.384 230.621L288.711 352.73L107.623 413.699L107.379 413.785L16.7063 535.894L-42.9565 555.977V557.21L17.683 536.797L17.9272 536.712L17.9516 536.736ZM176.369 643.658L176.613 643.573L267.286 521.464L448.374 460.494L448.618 460.409L539.291 338.3L720.379 277.331L720.623 277.245L811.284 155.136L992.372 94.1666L992.616 94.0811L1083.28 -28.0282L1159.71 -53.7637H1156.06L1082.31 -28.9316L1082.07 -28.8461L991.408 93.2631L810.319 154.232L810.075 154.318L719.415 276.427L538.326 337.396L538.082 337.482L447.422 459.591L266.333 520.572L266.089 520.658L175.417 642.767L-5.68403 703.736L-5.9282 703.822L-42.9199 753.645V756.099L-4.71956 704.64L176.369 643.671V643.658ZM153.71 628.398L153.954 628.312L244.627 506.203L425.715 445.234L425.959 445.148L516.62 323.039L697.708 262.07L697.952 261.984L788.612 139.875L969.701 78.906L969.945 78.8205L1060.61 -43.2888L1091.7 -53.7637H1088.05L1059.63 -44.1922L1059.38 -44.1068L968.712 78.0025L787.624 138.972L787.379 139.057L696.719 261.166L515.631 322.136L515.386 322.221L424.726 444.33L243.638 505.312L243.394 505.397L152.721 627.507L-28.3674 688.476L-28.6116 688.561L-42.9443 707.863V710.317L-27.4029 689.379L153.686 628.41L153.71 628.398ZM3.71651 -53.7759H0.0661697L-28.3552 -44.2044L-28.5994 -44.119L-42.9321 -24.8173V-22.3634L-27.3907 -43.301L3.7043 -53.7759H3.71651ZM85.9529 582.518L176.613 460.409L357.702 399.44L357.946 399.354L448.606 277.245L629.695 216.276L629.939 216.19L720.611 94.0811L901.7 33.1119L901.944 33.0265L966.38 -53.7637H964.561L900.735 32.2085L719.647 93.1777L719.403 93.2631L628.73 215.372L447.642 276.342L447.397 276.427L356.737 398.536L175.649 459.506L175.404 459.591L84.7442 581.7L-42.9199 624.686V625.919L85.7087 582.604L85.9529 582.518ZM63.2817 567.258L153.942 445.148L335.03 384.179L335.275 384.094L425.947 261.984L607.036 201.015L607.28 200.93L697.952 78.8205L879.041 17.8513L879.285 17.7659L932.392 -53.7637H930.56L878.064 16.9479L696.976 77.9171L696.731 78.0025L606.059 200.112L424.97 261.081L424.726 261.166L334.054 383.276L152.965 444.245L152.721 444.33L62.0609 566.44L-42.9321 601.795V603.029L63.0376 567.343L63.2817 567.258ZM40.6106 551.997L131.271 429.888L312.359 368.919L312.603 368.833L403.276 246.724L584.364 185.755L584.609 185.669L675.281 63.5599L856.37 2.59071L856.614 2.50525L898.391 -53.7637H896.572L855.405 1.68728L674.317 62.6565L674.072 62.7419L583.4 184.851L402.311 245.82L402.067 245.906L311.407 368.015L130.319 428.984L130.074 429.07L39.4141 551.179L-42.9077 578.905V580.138L40.3908 552.095L40.635 552.009L40.6106 551.997ZM17.9516 903.076L108.624 780.967L289.713 719.998L289.957 719.913L380.617 597.803L561.705 536.834L561.95 536.749L652.622 414.639L833.711 353.67L833.955 353.585L924.615 231.475L1105.7 170.506L1105.95 170.421L1196.61 48.2749L1377.7 -12.6943L1377.94 -12.7798L1408.38 -53.7759H1406.56L1376.73 -13.5977L1195.63 47.3714L1195.39 47.4569L1104.71 169.566L923.626 230.535L923.382 230.621L832.709 352.73L651.621 413.699L651.377 413.785L560.704 535.894L379.616 596.863L379.372 596.949L288.699 719.058L107.611 780.027L107.367 780.113L16.6941 902.222L-42.9688 922.305V923.538L17.6708 903.125L17.915 903.04L17.9516 903.076ZM-4.71956 887.804L85.9529 765.694L267.041 704.725L267.286 704.64L357.958 582.53L539.047 521.561L539.291 521.476L629.963 399.367L811.052 338.397L811.296 338.312L901.968 216.203L1083.06 155.233L1083.3 155.148L1173.97 33.0387L1355.06 -27.9305L1355.31 -28.016L1374.41 -53.7515H1372.59L1354.1 -28.8339L1173.01 32.1352L1172.76 32.2207L1082.09 154.33L901.004 215.311L900.76 215.397L810.087 337.506L628.999 398.475L628.755 398.561L538.082 520.67L356.994 581.639L356.749 581.725L266.077 703.834L84.9884 764.803L84.7442 764.889L-5.9282 886.986L-42.9199 899.438V900.671L-4.96373 887.889L-4.71956 887.804ZM63.2817 750.434L244.37 689.465L244.614 689.379L335.287 567.27L516.375 506.301L516.62 506.215L607.292 384.106L788.38 323.137L788.625 323.051L879.297 200.942L1060.39 139.973L1060.63 139.887L1151.29 17.7781L1332.38 -43.1911L1332.62 -43.2766L1340.4 -53.7515H1338.58L1331.41 -44.0945L1150.33 16.8746L1150.08 16.9601L1059.42 139.069L878.333 200.039L878.088 200.124L787.416 322.233L606.327 383.202L606.083 383.288L515.411 505.397L334.322 566.379L334.078 566.464L243.406 688.573L62.3172 749.542L62.0731 749.628L-28.5994 871.737L-42.9199 876.56V877.793L-27.3785 872.555L63.2939 750.446L63.2817 750.434ZM199.04 658.931L199.284 658.846L289.957 536.736L471.045 475.755L471.289 475.67L561.962 353.56L743.05 292.591L743.295 292.506L833.955 170.396L1015.04 109.427L1015.29 109.342L1105.95 -12.7676L1227.72 -53.7637H1224.06L1104.98 -13.6588L1104.74 -13.5733L1014.07 108.536L832.978 169.505L832.734 169.591L742.074 291.7L560.985 352.669L560.741 352.755L470.069 474.864L288.98 535.833L288.736 535.918L198.063 658.028L16.9749 718.997L16.7308 719.082L-42.9321 799.439V801.893L17.9394 719.9L199.028 658.919L199.04 658.931ZM63.2817 933.598L153.942 811.488L335.03 750.519L335.275 750.434L425.947 628.324L607.036 567.355L607.28 567.27L697.952 445.161L879.041 384.191L879.285 384.106L969.957 261.997L1151.05 201.027L1151.29 200.942L1241.96 78.8327L1423.05 17.8635L1423.3 17.7781L1476.4 -53.7515H1474.57L1422.07 16.9601L1240.99 77.9293L1240.74 78.0147L1150.07 200.124L968.981 261.093L968.736 261.179L878.064 383.288L696.976 444.257L696.731 444.343L606.059 566.452L424.97 627.421L424.726 627.507L334.054 749.616L152.965 810.585L152.721 810.67L62.0609 932.78L-42.9321 968.135V969.369L63.0376 933.683L63.2817 933.598ZM221.699 674.192L221.943 674.106L312.603 551.997L493.692 491.028L493.936 490.942L584.609 368.833L765.697 307.864L765.941 307.778L856.614 185.669L1037.7 124.7L1037.95 124.615L1128.61 2.50525L1295.7 -53.7637H1292.05L1127.63 1.60182L1127.39 1.68728L1036.73 123.797L855.637 184.766L855.393 184.851L764.72 306.96L583.632 367.93L583.388 368.015L492.715 490.124L311.627 551.094L311.383 551.179L220.71 673.288L39.6217 734.258L39.3775 734.343L-42.9443 845.22V847.674L40.5983 735.149L221.687 674.167L221.699 674.192ZM108.612 597.791L199.272 475.682L380.361 414.713L380.605 414.627L471.265 292.518L652.353 231.549L652.598 231.463L743.27 109.354L924.371 48.3603L924.615 48.2749L1000.39 -53.7759H998.562L923.394 47.4569L742.306 108.426L742.061 108.512L651.389 230.621L470.301 291.59L470.056 291.675L379.396 413.785L198.308 474.754L198.063 474.839L107.403 596.949L-42.9199 647.565V648.798L108.38 597.852L108.624 597.767L108.612 597.791ZM40.6106 918.337L131.271 796.228L312.359 735.259L312.603 735.173L403.276 613.064L584.364 552.095L584.609 552.009L675.281 429.9L856.37 368.931L856.614 368.845L947.286 246.736L1128.37 185.767L1128.62 185.681L1219.29 63.5721L1400.38 2.60292L1400.62 2.51746L1442.4 -53.7515H1440.57L1399.4 1.69949L1218.31 62.6687L1218.07 62.7541L1127.4 184.863L946.309 245.833L946.065 245.918L855.393 368.027L674.304 428.997L674.06 429.082L583.388 551.191L402.299 612.16L402.055 612.246L311.395 734.355L130.306 795.324L130.062 795.41L39.4019 917.519L-42.9199 945.245V946.478L40.3786 918.435L40.6228 918.349L40.6106 918.337ZM-4.71956 521.464L85.9529 399.354L267.041 338.385L267.286 338.3L357.958 216.19L539.047 155.221L539.291 155.136L629.963 33.0265L811.052 -27.9427L811.296 -28.0282L830.402 -53.7637H828.583L810.087 -28.8461L628.999 32.123L628.755 32.2085L538.082 154.318L356.994 215.287L356.749 215.372L266.077 337.482L84.9884 398.451L84.7442 398.536L-5.9282 520.646L-42.9199 533.098V534.331L-4.96373 521.549L-4.71956 521.464ZM40.6106 185.657L131.283 63.5355L312.371 2.56629L312.616 2.48083L354.393 -53.7881H352.574L311.407 1.66286L130.306 62.6443L130.062 62.7297L39.4019 184.839L-42.9199 212.564V213.798L40.3786 185.755L40.6228 185.669L40.6106 185.657ZM85.9529 216.178L176.613 94.0689L357.702 33.0997L357.946 33.0143L422.382 -53.7759H420.563L356.737 32.1963L175.649 93.1655L175.404 93.2509L84.7442 215.36L-42.9199 258.346V259.579L85.7087 216.264L85.9529 216.178ZM108.612 231.451L199.272 109.342L380.373 48.3603L380.617 48.2749L456.395 -53.7759H454.564L379.396 47.4569L198.308 108.426L198.063 108.512L107.403 230.621L-42.9199 281.237V282.47L108.38 231.524L108.624 231.439L108.612 231.451ZM63.2817 200.918L153.942 78.8083L335.03 17.8391L335.275 17.7536L388.382 -53.7759H386.55L334.054 16.9357L152.977 77.9049L152.733 77.9903L62.0731 200.1L-42.9199 235.455V236.688L63.0498 201.003L63.2939 200.918H63.2817ZM131.283 246.712L221.955 124.602L403.044 63.6209L403.288 63.5355L490.396 -53.7881H488.577L402.067 62.7175L220.979 123.687L220.735 123.772L130.062 245.881L-42.9321 304.14V305.373L131.027 246.797L131.271 246.712H131.283ZM71.7178 -53.7759H68.0674L-5.68403 -28.9438L-5.9282 -28.8584L-42.9321 20.9645V23.4184L-4.71956 -28.0404L71.7178 -53.7759ZM207.708 -53.7759H204.058L39.6461 1.5774L39.4019 1.66286L-42.9321 112.553V115.006L40.6106 2.48083L207.708 -53.7881V-53.7759ZM139.707 -53.7759H136.057L16.9749 -13.6832L16.7308 -13.5977L-42.9321 66.7585V69.2124L17.9516 -12.7798L139.719 -53.7759H139.707ZM153.71 262.058L153.954 261.972L244.627 139.863L425.715 78.8938L425.959 78.8083L516.62 -43.301L547.715 -53.7759H544.064L515.643 -44.2044L515.399 -44.119L424.738 77.9903L243.65 138.96L243.406 139.045L152.733 261.154L-28.3552 322.136L-28.5994 322.221L-42.9321 341.523V343.977L-27.3907 323.039L153.698 262.07L153.71 262.058ZM17.9516 170.396L108.612 48.2749L289.7 -12.6943L289.945 -12.7798L320.392 -53.7759H318.561L288.724 -13.5977L107.647 47.3714L107.403 47.4569L16.7308 169.566L-42.9321 189.649V190.882L17.7074 170.47L17.9516 170.384V170.396ZM221.699 307.852L221.943 307.766L312.603 185.657L493.692 124.688L493.936 124.602L584.609 2.49304L751.706 -53.7759H748.056L583.644 1.58961L583.4 1.67507L492.727 123.784L311.639 184.754L311.395 184.839L220.722 306.948L39.6339 367.917L39.3897 368.003L-42.9321 478.88V481.334L40.6106 368.809L221.699 307.839V307.852ZM176.369 277.318L176.613 277.233L267.286 155.124L448.374 94.1544L448.618 94.0689L539.291 -28.0404L615.728 -53.7759H612.078L538.326 -28.9438L538.082 -28.8584L447.422 93.2509L266.333 154.22L266.089 154.306L175.417 276.415L-5.68403 337.396L-5.9282 337.482L-42.9199 387.305V389.758L-4.71956 338.3L176.369 277.331V277.318ZM199.04 292.591L199.284 292.506L289.957 170.396L471.045 109.427L471.289 109.342L561.962 -12.7676L683.729 -53.7637H680.079L560.997 -13.6588L560.753 -13.5733L470.081 108.536L288.992 169.505L288.748 169.591L198.076 291.7L16.9749 352.657L16.7308 352.742L-42.9321 433.099V435.552L17.9394 353.56L199.028 292.579L199.04 292.591ZM-4.71956 155.124L85.9529 33.0143L267.041 -27.9549L267.286 -28.0404L286.392 -53.7759H284.573L266.077 -28.8584L84.9762 32.1108L84.732 32.1963L-5.9282 154.306L-42.9199 166.758V167.991L-4.96373 155.209L-4.71956 155.124ZM63.2817 17.7414L244.37 -43.2277L244.614 -43.3132L252.391 -53.7881H250.56L243.394 -44.1312L62.305 16.8502L62.0609 16.9357L-28.5994 139.045L-42.9321 143.867V145.1L-27.3907 139.863L63.2817 17.7414ZM131.283 613.052L221.955 490.942L403.044 429.973L403.288 429.888L493.948 307.778L675.037 246.809L675.281 246.724L765.941 124.615L947.03 63.6454L947.274 63.5599L1034.38 -53.7637H1032.56L946.065 62.7419L764.977 123.711L764.733 123.797L674.072 245.906L492.984 306.875L492.74 306.96L402.079 429.07L220.991 490.039L220.747 490.124L130.074 612.234L-42.9199 670.48V671.713L131.039 613.137L131.283 613.052Z" fill="url(#paint0_linear_6663_67895)"/>
<defs>
<linearGradient id="paint0_linear_6663_67895" x1="858.441" y1="58.4738" x2="780.397" y2="973.788" gradientUnits="userSpaceOnUse">
<stop stop-color="white"/>
<stop offset="1" stop-color="white" stop-opacity="0"/>
</linearGradient>
</defs>
</svg>
