<svg width="167" height="80" viewBox="0 0 167 80" fill="none" xmlns="http://www.w3.org/2000/svg">
<g clip-path="url(#clip0_6126_116724)">
<path d="M62.9663 0.42627H2.54688V60.8457H62.9663V0.42627Z" fill="white"/>
<path d="M147.333 30.6813C147.333 25.3187 143.328 21.3192 137.959 21.3192C132.591 21.3192 128.586 25.3187 128.586 30.6813C128.586 36.0439 132.591 40.0434 137.959 40.0434C143.328 40.0434 147.333 36.0439 147.333 30.6813ZM145.747 30.6813C145.747 35.226 142.459 38.5454 137.959 38.5454C133.46 38.5454 130.188 35.226 130.188 30.6813C130.188 26.1366 133.46 22.8173 137.959 22.8173C142.459 22.8173 145.747 26.1366 145.747 30.6813ZM135.418 35.9231V26.7802H133.816C133.032 26.7802 132.726 27.0697 132.726 27.8876V35.9231H135.418ZM140.514 35.9231H143.19V27.8876C143.19 27.0697 142.883 26.7802 142.099 26.7802H140.514V35.9231ZM139.322 35.9231V25.5885C139.322 24.7706 139.016 24.498 138.215 24.498H135.795V25.6391H135.947C136.492 25.6391 136.61 25.774 136.61 26.4401V35.9231H139.32H139.322Z" fill="white"/>
<path d="M75.3039 35.9239L76.1893 32.9784H79.666L80.4839 35.9239H83.7217L80.5176 24.7068C80.3293 24.0435 79.9217 23.7372 79.2219 23.7372H74.6715V24.7912H75.0454C75.5232 24.7912 75.7789 24.9795 75.7789 25.3364C75.7789 25.5753 75.7283 25.7777 75.54 26.3229L72.3359 35.9239H75.3011H75.3039ZM79.2247 30.9857H76.6502L78.0302 26.5084L79.2247 30.9857Z" fill="white"/>
<path d="M87.42 35.9237V24.6701C87.42 24.0742 87.0799 23.7341 86.5178 23.7341H83.6875V24.7909H83.8758C84.3536 24.7909 84.556 24.9961 84.556 25.4711V35.9237H87.42Z" fill="white"/>
<path d="M92.3134 35.9237V24.6701C92.3134 24.0742 91.9733 23.7341 91.3915 23.7341H88.5781V24.7909H88.7496C89.2442 24.7909 89.4325 24.9961 89.4325 25.4711V35.9237H92.3134Z" fill="white"/>
<path d="M97.2769 35.9244V27.7175C97.2769 27.1385 96.9199 26.7815 96.3578 26.7815H93.5781V27.8214H93.7496C94.2105 27.8214 94.4129 28.0435 94.4129 28.5185V35.9244H97.2769ZM97.3275 24.8422C97.3275 24.0243 96.7316 23.5325 95.6748 23.5325C94.6181 23.5325 94.0391 24.0271 94.0391 24.8422C94.0391 25.6573 94.6518 26.1688 95.6748 26.1688C96.6979 26.1688 97.3275 25.6741 97.3275 24.8422Z" fill="white"/>
<path d="M99.6905 29.4027C100.643 28.9417 101.7 28.6888 102.521 28.6888C103.288 28.6888 103.561 28.9614 103.561 29.7624V29.9676C102.386 30.1559 102.026 30.2234 101.363 30.3752C100.989 30.4595 100.629 30.5803 100.289 30.7152C99.1312 31.1762 98.5859 32.0784 98.5859 33.4387C98.5859 35.1757 99.3364 36.0273 100.888 36.0273C101.467 36.0273 101.978 35.9092 102.439 35.7378C102.83 35.5495 103.069 35.3977 103.667 34.9368V35.0717C103.667 35.6338 103.957 35.9233 104.519 35.9233H107.144V34.9368H107.009C106.515 34.9368 106.329 34.7147 106.329 34.1357V29.7765C106.329 27.4606 105.528 26.6624 103.209 26.6624C102.459 26.6624 101.725 26.7467 101.011 26.9181C100.295 27.0699 99.921 27.2245 99.0694 27.6489L99.6989 29.4027H99.6905ZM103.561 31.5303V33.3178C103.083 33.8125 102.504 34.102 102.009 34.102C101.515 34.102 101.309 33.8462 101.309 33.1661C101.309 32.4859 101.464 32.1796 101.973 31.9912C102.347 31.8226 102.841 31.668 103.558 31.5303" fill="white"/>
<path d="M111.302 35.9233V29.7427C111.78 29.2144 112.275 28.9783 112.854 28.9783C113.433 28.9783 113.604 29.2172 113.604 30.1362V35.9233H116.452V29.709C116.452 28.2616 116.35 27.8034 115.889 27.3256C115.499 26.9012 114.917 26.6792 114.169 26.6792C113.045 26.6792 112.261 27.0193 111.204 28.0058V27.6489C111.204 27.0699 110.915 26.7804 110.319 26.7804H107.609V27.8203H107.781C108.259 27.8203 108.461 28.0423 108.461 28.5173V35.9233H111.308H111.302Z" fill="white"/>
<path d="M124.914 34.0185H120.926L124.742 28.6728V26.7841H118.778C118.095 26.7841 117.772 27.0904 117.772 27.7706V29.4401H118.846V29.2686C118.846 28.8611 119.068 28.6559 119.509 28.6559H121.572L117.719 34.0523V35.9241H124.911V34.0185H124.914Z" fill="white"/>
<path d="M147.333 30.6813C147.333 25.3187 143.328 21.3192 137.959 21.3192C132.591 21.3192 128.586 25.3187 128.586 30.6813C128.586 36.0439 132.591 40.0434 137.959 40.0434C143.328 40.0434 147.333 36.0439 147.333 30.6813ZM145.747 30.6813C145.747 35.226 142.459 38.5454 137.959 38.5454C133.46 38.5454 130.188 35.226 130.188 30.6813C130.188 26.1366 133.46 22.8173 137.959 22.8173C142.459 22.8173 145.747 26.1366 145.747 30.6813ZM135.418 35.9231V26.7802H133.816C133.032 26.7802 132.726 27.0697 132.726 27.8876V35.9231H135.418ZM140.514 35.9231H143.19V27.8876C143.19 27.0697 142.883 26.7802 142.099 26.7802H140.514V35.9231ZM139.322 35.9231V25.5885C139.322 24.7706 139.016 24.498 138.215 24.498H135.795V25.6391H135.947C136.492 25.6391 136.61 25.774 136.61 26.4401V35.9231H139.32H139.322Z" fill="white"/>
<path d="M75.3039 35.9239L76.1893 32.9784H79.666L80.4839 35.9239H83.7217L80.5176 24.7068C80.3293 24.0435 79.9217 23.7372 79.2219 23.7372H74.6715V24.7912H75.0454C75.5232 24.7912 75.7789 24.9795 75.7789 25.3364C75.7789 25.5753 75.7283 25.7777 75.54 26.3229L72.3359 35.9239H75.3011H75.3039ZM79.2247 30.9857H76.6502L78.0302 26.5084L79.2247 30.9857Z" fill="white"/>
<path d="M97.2769 35.9244V27.7175C97.2769 27.1385 96.9199 26.7815 96.3578 26.7815H93.5781V27.8214H93.7496C94.2105 27.8214 94.4129 28.0435 94.4129 28.5185V35.9244H97.2769ZM97.3275 24.8422C97.3275 24.0243 96.7316 23.5325 95.6748 23.5325C94.6181 23.5325 94.0391 24.0271 94.0391 24.8422C94.0391 25.6573 94.6518 26.1688 95.6748 26.1688C96.6979 26.1688 97.3275 25.6741 97.3275 24.8422Z" fill="white"/>
<path d="M99.6905 29.4027C100.643 28.9417 101.7 28.6888 102.521 28.6888C103.288 28.6888 103.561 28.9614 103.561 29.7624V29.9676C102.386 30.1559 102.026 30.2234 101.363 30.3752C100.989 30.4595 100.629 30.5803 100.289 30.7152C99.1312 31.1762 98.5859 32.0784 98.5859 33.4387C98.5859 35.1757 99.3364 36.0273 100.888 36.0273C101.467 36.0273 101.978 35.9092 102.439 35.7378C102.83 35.5495 103.069 35.3977 103.667 34.9368V35.0717C103.667 35.6338 103.957 35.9233 104.519 35.9233H107.144V34.9368H107.009C106.515 34.9368 106.329 34.7147 106.329 34.1357V29.7765C106.329 27.4606 105.528 26.6624 103.209 26.6624C102.459 26.6624 101.725 26.7467 101.011 26.9181C100.295 27.0699 99.921 27.2245 99.0694 27.6489L99.6989 29.4027H99.6905ZM103.561 31.5303V33.3178C103.083 33.8125 102.504 34.102 102.009 34.102C101.515 34.102 101.309 33.8462 101.309 33.1661C101.309 32.4859 101.464 32.1796 101.973 31.9912C102.347 31.8226 102.841 31.668 103.558 31.5303" fill="white"/>
<path d="M124.914 34.0185H120.926L124.742 28.6728V26.7841H118.778C118.095 26.7841 117.772 27.0904 117.772 27.7706V29.4401H118.846V29.2686C118.846 28.8611 119.068 28.6559 119.509 28.6559H121.572L117.719 34.0523V35.9241H124.911V34.0185H124.914Z" fill="white"/>
<path d="M111.302 35.9233V29.7427C111.78 29.2144 112.275 28.9783 112.854 28.9783C113.433 28.9783 113.604 29.2172 113.604 30.1362V35.9233H116.452V29.709C116.452 28.2616 116.35 27.8034 115.889 27.3256C115.499 26.9012 114.917 26.6792 114.169 26.6792C113.045 26.6792 112.261 27.0193 111.204 28.0058V27.6489C111.204 27.0699 110.915 26.7804 110.319 26.7804H107.609V27.8203H107.781C108.259 27.8203 108.461 28.0423 108.461 28.5173V35.9233H111.308H111.302Z" fill="white"/>
<path d="M92.3134 35.9237V24.6701C92.3134 24.0742 91.9733 23.7341 91.3915 23.7341H88.5781V24.7909H88.7496C89.2442 24.7909 89.4325 24.9961 89.4325 25.4711V35.9237H92.3134Z" fill="white"/>
<path d="M87.42 35.9237V24.6701C87.42 24.0742 87.0799 23.7341 86.5178 23.7341H83.6875V24.7909H83.8758C84.3536 24.7909 84.556 24.9961 84.556 25.4711V35.9237H87.42Z" fill="white"/>
<path d="M6.7712 76.1851H3.49967C3.46594 76.1851 3.44908 76.1682 3.44908 76.1345V70.2772C3.44908 70.2266 3.39849 70.176 3.34789 70.176H2.64806C2.59747 70.176 2.54688 70.2266 2.54688 70.2772V76.9327C2.54688 76.9833 2.59747 77.0339 2.64806 77.0339H6.77401C6.8246 77.0339 6.8752 76.9833 6.8752 76.9327V76.2863C6.8752 76.2357 6.8246 76.1851 6.77401 76.1851" fill="white"/>
<path d="M8.97289 70.176H8.27306C8.2056 70.176 8.17188 70.2266 8.17188 70.2772V76.9327C8.17188 76.9833 8.2056 77.0339 8.27306 77.0339H8.97289C9.02349 77.0339 9.07408 76.9833 9.07408 76.9327V70.2772C9.07408 70.2266 9.02349 70.176 8.97289 70.176Z" fill="white"/>
<path d="M15.1959 70.176H11.0699C11.0025 70.176 10.9688 70.2266 10.9688 70.2772V76.9327C10.9688 76.9833 11.0025 77.0339 11.0699 77.0339H11.7698C11.8204 77.0339 11.8541 76.9833 11.8541 76.9327V74.1249C11.8541 74.0743 11.8878 74.0575 11.9215 74.0575H14.6984C14.749 74.0575 14.7996 74.0237 14.7996 73.9563V73.3267C14.7996 73.2592 14.749 73.2255 14.6984 73.2255H11.9215C11.8878 73.2255 11.8541 73.2087 11.8541 73.1581V71.081C11.8541 71.0473 11.8878 71.0304 11.9215 71.0304H15.1931C15.2437 71.0304 15.2774 70.9799 15.2774 70.9293V70.2828C15.2774 70.2322 15.2437 70.1816 15.1931 70.1816" fill="white"/>
<path d="M20.9928 70.176H16.8668C16.8162 70.176 16.7656 70.2266 16.7656 70.2772V76.9327C16.7656 76.9833 16.8162 77.0339 16.8668 77.0339H20.9928C21.0602 77.0339 21.0939 76.9833 21.0939 76.9327V76.2863C21.0939 76.2357 21.0602 76.1851 20.9928 76.1851H17.7381C17.6875 76.1851 17.6706 76.1682 17.6706 76.1345V74.0406C17.6706 74.0069 17.6875 73.99 17.7381 73.99H20.4981C20.5656 73.99 20.5993 73.9563 20.5993 73.8888V73.2593C20.5993 73.1918 20.5656 73.1581 20.4981 73.1581H17.7381C17.6875 73.1581 17.6706 73.1412 17.6706 73.0906V71.081C17.6706 71.0473 17.6875 71.0304 17.7381 71.0304H20.9928C21.0602 71.0304 21.0939 70.9799 21.0939 70.9293V70.2828C21.0939 70.2322 21.0602 70.1816 20.9928 70.1816" fill="white"/>
<path d="M29.9504 73.3943H27.7525C27.7019 73.3943 27.6513 73.428 27.6513 73.4954V74.0744C27.6513 74.1419 27.7019 74.1756 27.7525 74.1756H29.0819C29.1325 74.1756 29.1494 74.1925 29.1494 74.2431C29.1494 74.7546 29.0819 75.0778 29.0145 75.3167C28.8093 75.9631 28.2472 76.3032 27.5474 76.3032C26.7632 76.3032 26.2685 75.9463 26.0634 75.283C25.979 75.0272 25.9285 74.6534 25.9285 73.5966C25.9285 72.5398 25.979 72.1829 26.0634 71.9271C26.2685 71.2638 26.7632 70.9069 27.5474 70.9069C28.2641 70.9069 28.7222 71.1964 29.0482 71.8091C29.0819 71.8765 29.1325 71.8934 29.1859 71.8597L29.7986 71.5702C29.8492 71.5365 29.8492 71.4859 29.8324 71.4353C29.4754 70.668 28.7419 70.0721 27.5474 70.0721C26.3528 70.0721 25.535 70.6174 25.1949 71.6714C25.0768 72.062 25.0234 72.4724 25.0234 73.5938C25.0234 74.7153 25.074 75.1425 25.1949 75.5331C25.535 76.5899 26.3866 77.1324 27.5474 77.1324C28.7081 77.1324 29.5429 76.5534 29.883 75.5163C29.9673 75.1762 30.0544 74.6141 30.0544 74.0014V73.4898C30.0544 73.4224 30.0038 73.3886 29.9532 73.3886" fill="white"/>
<path d="M33.977 70.0752C32.8191 70.0752 32.0012 70.6205 31.6414 71.6744C31.5065 72.0651 31.4531 72.4754 31.4531 73.5997C31.4531 74.7239 31.5037 75.1483 31.6414 75.539C31.9984 76.593 32.8163 77.1382 33.977 77.1382C35.1378 77.1382 35.9529 76.593 36.3126 75.539C36.4307 75.1483 36.4841 74.738 36.4841 73.5997C36.4841 72.4614 36.4335 72.0679 36.3126 71.6744C35.9557 70.6176 35.1378 70.0752 33.977 70.0752ZM35.4245 75.2832C35.2193 75.9465 34.7247 76.3035 33.977 76.3035C33.2294 76.3035 32.7319 75.9465 32.5127 75.2832C32.4453 75.0275 32.375 74.5862 32.375 73.5969C32.375 72.6075 32.4425 72.1831 32.5127 71.9274C32.7348 71.2641 33.2126 70.9071 33.977 70.9071C34.7415 70.9071 35.2221 71.2641 35.4245 71.9274C35.5088 72.1831 35.5791 72.6244 35.5791 73.5969C35.5791 74.5693 35.5116 75.0275 35.4245 75.2832Z" fill="white"/>
<path d="M40.6209 70.2772C40.604 70.2266 40.5535 70.176 40.486 70.176H39.8368C39.7524 70.176 39.7356 70.2266 39.7018 70.2772L37.3325 76.9327C37.3156 76.9833 37.3494 77.0339 37.4 77.0339H38.0998C38.1673 77.0339 38.201 77.0002 38.2375 76.9327L38.7659 75.4347H41.5259L42.0543 76.9327C42.0712 77.0002 42.1218 77.0339 42.1892 77.0339H42.8891C42.9565 77.0339 42.9902 76.9833 42.9565 76.9327L40.6209 70.2772ZM39.0526 74.6168L40.1431 71.5026H40.16L41.2336 74.6168H39.0526Z" fill="white"/>
<path d="M48.4821 76.1851H45.2106C45.1769 76.1851 45.16 76.1682 45.16 76.1345V70.2772C45.16 70.2266 45.1094 70.176 45.0588 70.176H44.359C44.2915 70.176 44.2578 70.2266 44.2578 70.2772V76.9327C44.2578 76.9833 44.2915 77.0339 44.359 77.0339H48.4849C48.5355 77.0339 48.5861 76.9833 48.5861 76.9327V76.2863C48.5861 76.2357 48.5355 76.1851 48.4849 76.1851" fill="white"/>
<path d="M52.4336 73.1556L52.1104 73.1219C51.0536 72.9673 50.663 72.5935 50.663 72.0145C50.663 71.3681 51.1239 70.9071 51.9587 70.9071C52.5545 70.9071 53.066 71.0786 53.6113 71.4187C53.6619 71.4524 53.7125 71.4524 53.7659 71.4018L54.106 70.8397C54.1397 70.806 54.1228 70.7554 54.0891 70.7048C53.5776 70.331 52.7934 70.0752 51.9924 70.0752C50.6292 70.0752 49.7608 70.8594 49.7608 72.0848C49.7608 73.1584 50.4409 73.788 51.7703 73.9735L52.1104 74.0241C53.2178 74.159 53.541 74.5525 53.541 75.1315C53.541 75.8285 52.9789 76.3063 52.0402 76.3063C51.2391 76.3063 50.5562 75.9493 50.1149 75.6093C50.0643 75.5587 50.0137 75.5587 49.9772 75.6093L49.5331 76.1377C49.4994 76.1882 49.4994 76.2388 49.5331 76.2922C50.0446 76.7532 50.9806 77.1438 51.953 77.1438C53.6057 77.1438 54.4404 76.2754 54.4404 75.0837C54.4404 73.9594 53.7771 73.3467 52.428 73.1612" fill="white"/>
<path d="M56.7591 75.9633H55.9918C55.9244 75.9633 55.8906 75.997 55.8906 76.0644V76.9329C55.8906 76.9835 55.9244 77.0172 55.9918 77.0172H56.7591C56.8097 77.0172 56.8603 76.9835 56.8603 76.9329V76.0644C56.8603 75.997 56.8097 75.9633 56.7591 75.9633Z" fill="white"/>
<path d="M63.4265 70.1768H61.1246C61.0572 70.1768 61.0234 70.2274 61.0234 70.2779V76.9334C61.0234 76.984 61.0572 77.0178 61.1246 77.0178H63.4265C64.5845 77.0178 65.3518 76.54 65.6581 75.5703C65.7762 75.1965 65.8464 74.8227 65.8464 73.5945C65.8464 72.3662 65.779 72.0121 65.6581 71.6355C65.3518 70.6658 64.5845 70.1711 63.4265 70.1711M64.8065 75.2443C64.5845 75.9076 64.0561 76.1802 63.2382 76.1802H61.9762C61.9425 76.1802 61.9088 76.1633 61.9088 76.1296V71.0734C61.9088 71.0396 61.9425 71.0228 61.9762 71.0228H63.2382C64.0561 71.0228 64.5845 71.2954 64.8065 71.9587C64.8908 72.1976 64.9414 72.5377 64.9414 73.5916C64.9414 74.6456 64.8908 75.0054 64.8065 75.2443Z" fill="white"/>
<path d="M69.7649 70.0752C68.6238 70.0752 67.789 70.6205 67.4293 71.6744C67.3112 72.0651 67.2578 72.4754 67.2578 73.5997C67.2578 74.7239 67.3084 75.1483 67.4293 75.539C67.7862 76.593 68.621 77.1382 69.7649 77.1382C70.9088 77.1382 71.7407 76.593 72.1005 75.539C72.2354 75.1483 72.2888 74.738 72.2888 73.5997C72.2888 72.4614 72.2382 72.0679 72.1005 71.6744C71.7435 70.6176 70.9256 70.0752 69.7649 70.0752ZM71.232 75.2832C71.01 75.9465 70.5322 76.3035 69.7649 76.3035C68.9976 76.3035 68.5198 75.9465 68.3174 75.2832C68.2331 75.0275 68.1628 74.5862 68.1628 73.5969C68.1628 72.6075 68.2303 72.1831 68.3174 71.9274C68.5226 71.2641 69.0173 70.9071 69.7649 70.9071C70.5125 70.9071 71.01 71.2641 71.232 71.9274C71.2995 72.1831 71.3866 72.6244 71.3866 73.5969C71.3866 74.5693 71.3023 75.0275 71.232 75.2832Z" fill="white"/>
<path d="M78.7318 70.176H78.1022C78.0347 70.176 78.001 70.2266 78.001 70.2772V75.4178H77.9673L74.8644 70.2772C74.8138 70.2097 74.7632 70.176 74.6761 70.176H74.0465C73.979 70.176 73.9453 70.2266 73.9453 70.2772V76.9327C73.9453 76.9833 73.979 77.0339 74.0465 77.0339H74.6761C74.7267 77.0339 74.7773 76.9833 74.7773 76.9327V71.809H74.811L77.9139 76.9327C77.9645 77.0002 78.0151 77.0339 78.0853 77.0339H78.7318C78.7992 77.0339 78.8329 76.9833 78.8329 76.9327V70.2772C78.8329 70.2266 78.7992 70.176 78.7318 70.176Z" fill="white"/>
<path d="M84.9537 70.176H80.8277C80.7772 70.176 80.7266 70.2266 80.7266 70.2772V76.9327C80.7266 76.9833 80.7772 77.0339 80.8277 77.0339H84.9537C85.0043 77.0339 85.0549 76.9833 85.0549 76.9327V76.2863C85.0549 76.2357 85.0043 76.1851 84.9537 76.1851H81.6822C81.6484 76.1851 81.6316 76.1682 81.6316 76.1345V74.0406C81.6316 74.0069 81.6484 73.99 81.6822 73.99H84.459C84.5096 73.99 84.5602 73.9563 84.5602 73.8888V73.2593C84.5602 73.1918 84.5096 73.1581 84.459 73.1581H81.6822C81.6484 73.1581 81.6316 73.1412 81.6316 73.0906V71.081C81.6316 71.0473 81.6484 71.0304 81.6822 71.0304H84.9537C85.0043 71.0304 85.0549 70.9799 85.0549 70.9293V70.2828C85.0549 70.2322 85.0043 70.1816 84.9537 70.1816" fill="white"/>
<path d="M87.3204 75.9633H86.5531C86.5025 75.9633 86.4688 75.997 86.4688 76.0644V76.9329C86.4688 76.9835 86.5025 77.0172 86.5531 77.0172H87.3204C87.3878 77.0172 87.4215 76.9835 87.4215 76.9329V76.0644C87.4215 75.997 87.3878 75.9633 87.3204 75.9633Z" fill="white"/>
<path fill-rule="evenodd" clip-rule="evenodd" d="M5.67188 57.7034V49.6538H12.8558C14.3369 49.6538 16.7231 49.8534 16.7231 51.7646C16.7231 52.7061 15.8912 53.3694 14.9216 53.6083C16.1217 53.9681 16.7231 54.6286 16.7231 55.5336C16.7231 57.5066 14.455 57.6949 12.8558 57.7034H5.67188ZM8.30821 54.3138L9.06989 53.0799C9.23009 52.8129 9.59547 52.6274 9.92431 52.6274H12.8558C13.3813 52.6274 13.8086 52.3913 13.8086 51.9866C13.8086 51.5819 13.387 51.3486 12.8558 51.3486H8.30821V54.3166V54.3138ZM8.30821 54.3138V57.7034L9.06989 56.4667C9.23009 56.1997 9.59547 56.0142 9.92431 56.0142H12.822C13.3701 56.0226 13.8057 55.6376 13.8057 55.1654C13.8057 54.6932 13.3813 54.3166 12.822 54.3166H8.30541L8.30821 54.3138ZM23.0976 51.5931L19.5366 57.7034H16.4365L21.4028 49.6538H24.798L29.7615 57.7034H26.6586L25.8267 56.2671H21.2313L21.993 55.0333C22.1504 54.7635 22.5214 54.578 22.8474 54.578H24.8373L23.0976 51.5903V51.5931ZM44.6633 51.5931L41.1023 57.7034H37.9994L42.9629 49.6538H46.3581L51.3188 57.7034H48.2215L47.3868 56.2671H42.7942L43.5559 55.0333C43.7133 54.7635 44.0815 54.578 44.4075 54.578H46.4002L44.6577 51.5903L44.6633 51.5931ZM34.5508 56.0114C35.1494 56.0114 35.6357 55.7219 35.6357 55.1373V49.6566H38.2748V55.3846C38.2748 57.1216 37.1168 57.7062 35.5963 57.7062H31.2062C30.8773 57.7062 30.5091 57.5179 30.3517 57.2537L29.5872 56.0142H34.548L34.5508 56.0114ZM56.1137 56.0114C56.7123 56.0114 57.2014 55.7219 57.2014 55.1373V49.6566H59.8377V55.3846C59.8377 57.1216 58.6797 57.7062 57.162 57.7062H52.7719C52.4458 57.7062 52.0748 57.5179 51.9203 57.2537L51.1558 56.0142H56.1165L56.1137 56.0114Z" fill="#005DAC"/>
<path d="M38.6162 30.4856C40.505 29.9263 42.1323 28.3777 42.1323 26.1882C42.1323 21.7306 37.4808 21.2668 34.5887 21.2668H23.3828V40.0192H27.3036V25.241H38.9704L37.6775 27.7453C37.6775 27.7453 37.4189 28.3158 36.5336 28.2821H32.2699C32.2699 28.2821 30.8674 28.3524 30.7972 30.1034V34.0438C30.7972 34.0438 30.9152 32.5064 32.2109 32.3856L37.9164 32.3631L36.6882 34.7577C36.6882 34.7577 36.424 35.3985 35.6173 35.4042L32.1912 35.4463C32.1912 35.4463 31.0192 35.466 30.7887 37.0231V40.0192H34.5859C37.7112 40.0051 42.1295 39.5666 42.1295 34.9685C42.1295 32.8606 40.9687 31.3232 38.6134 30.4856" fill="#005DAC"/>
</g>
<defs>
<clipPath id="clip0_6126_116724">
<rect width="166.076" height="80" fill="white"/>
</clipPath>
</defs>
</svg>
