<svg width="42" height="42" viewBox="0 0 42 42" fill="none" xmlns="http://www.w3.org/2000/svg">
<circle cx="21" cy="21" r="20" fill="white"/>
<circle cx="21" cy="21" r="20.5" stroke="#001F33" stroke-opacity="0.1"/>
<g clip-path="url(#clip0_2768_60522)">
<rect width="24" height="24" transform="translate(8.77344 8.92578)" fill="white"/>
<path d="M20.7734 16.4258H29.0234" stroke="#0072BC" stroke-width="2.25" stroke-linecap="round" stroke-linejoin="round"/>
<path d="M12.5234 16.4258H16.2734" stroke="#0072BC" stroke-width="2.25" stroke-linecap="round" stroke-linejoin="round"/>
<path d="M18.5234 18.6758C19.7661 18.6758 20.7734 17.6684 20.7734 16.4258C20.7734 15.1831 19.7661 14.1758 18.5234 14.1758C17.2808 14.1758 16.2734 15.1831 16.2734 16.4258C16.2734 17.6684 17.2808 18.6758 18.5234 18.6758Z" fill="#EF860A" stroke="#EF860A" stroke-width="2.25" stroke-linecap="round" stroke-linejoin="round"/>
<path d="M20.7734 25.25H12.5234" stroke="#0072BC" stroke-width="2.25" stroke-linecap="round" stroke-linejoin="round"/>
<path d="M29.0234 25.25H25.2734" stroke="#0072BC" stroke-width="2.25" stroke-linecap="round" stroke-linejoin="round"/>
<path d="M23.0234 27.5C21.7808 27.5 20.7734 26.4926 20.7734 25.25C20.7734 24.0074 21.7808 23 23.0234 23C24.2661 23 25.2734 24.0074 25.2734 25.25C25.2734 26.4926 24.2661 27.5 23.0234 27.5Z" fill="#EF860A" stroke="#EF860A" stroke-width="2.25" stroke-linecap="round" stroke-linejoin="round"/>
</g>
<defs>
<clipPath id="clip0_2768_60522">
<rect width="24" height="24" fill="white" transform="translate(8.77344 8.92578)"/>
</clipPath>
</defs>
</svg>
