<svg width="42" height="42" viewBox="0 0 42 42" fill="none" xmlns="http://www.w3.org/2000/svg">
<circle cx="21" cy="21" r="20.1" fill="#001F33" fill-opacity="0.2" stroke="#F3F9FC" stroke-width="0.2"/>
<path d="M24.0195 29C24.0195 30.65 22.6695 32 21.0195 32C20.1995 32 19.4395 31.66 18.8995 31.12C18.3595 30.58 18.0195 29.82 18.0195 29" fill="#EF860A"/>
<path d="M21.0186 11.9102C17.7086 11.9102 15.0186 14.6002 15.0186 17.9102V20.8002C15.0186 21.4102 14.7586 22.3402 14.4486 22.8602L13.2986 24.7702C12.5886 25.9502 13.0786 27.2602 14.3786 27.7002C18.6886 29.1402 23.3386 29.1402 27.6486 27.7002C28.8586 27.3002 29.3886 25.8702 28.7286 24.7702L27.5786 22.8602C27.2786 22.3402 27.0186 21.4102 27.0186 20.8002V17.9102C27.0186 14.6102 24.3186 11.9102 21.0186 11.9102Z" stroke="#F3F9FC" stroke-width="2.25" stroke-miterlimit="10" stroke-linecap="round"/>
</svg>
