<svg width="58" height="58" viewBox="0 0 58 58" fill="none" xmlns="http://www.w3.org/2000/svg">
<circle cx="29" cy="29" r="28" fill="white"/>
<circle cx="29" cy="29" r="28.5" stroke="#001F33" stroke-opacity="0.1"/>
<path d="M37.4018 31.8181C36.5749 31.8235 35.7595 32.0119 35.0142 32.3696C34.2689 32.7272 33.6121 33.2454 33.0912 33.8867L25.9535 30.602C26.2891 29.5758 26.2891 28.4694 25.9535 27.4432L33.0912 24.1585C33.9332 25.1732 35.107 25.8582 36.4056 26.0927C37.7041 26.3272 39.0438 26.0961 40.1882 25.4401C41.3327 24.7841 42.2084 23.7454 42.6607 22.5074C43.113 21.2694 43.1129 19.9116 42.6603 18.6736C42.2078 17.4357 41.3319 16.3972 40.1874 15.7414C39.0428 15.0856 37.703 14.8547 36.4045 15.0894C35.1061 15.3241 33.9324 16.0094 33.0906 17.0243C32.2488 18.0391 31.793 19.3183 31.8036 20.6362C31.8078 20.9691 31.8406 21.3012 31.9016 21.6286L24.512 25.0251C23.7242 24.2557 22.7265 23.7357 21.6441 23.5301C20.5616 23.3245 19.4425 23.4425 18.4269 23.8693C17.4112 24.2961 16.5443 25.0128 15.9348 25.9295C15.3252 26.8462 15 27.9222 15 29.0226C15 30.123 15.3252 31.199 15.9348 32.1157C16.5443 33.0324 17.4112 33.7491 18.4269 34.1759C19.4425 34.6027 20.5616 34.7207 21.6441 34.5151C22.7265 34.3095 23.7242 33.7895 24.512 33.0201L31.9016 36.4166C31.8406 36.744 31.8078 37.0761 31.8036 37.409C31.8036 38.5148 32.132 39.5958 32.7471 40.5152C33.3622 41.4346 34.2366 42.1512 35.2595 42.5744C36.2824 42.9976 37.408 43.1083 38.494 42.8926C39.5799 42.6768 40.5774 42.1444 41.3603 41.3624C42.1432 40.5805 42.6764 39.5843 42.8924 38.4998C43.1084 37.4152 42.9976 36.2911 42.5739 35.2695C42.1501 34.2479 41.4326 33.3747 40.512 32.7603C39.5914 32.146 38.509 31.8181 37.4018 31.8181ZM37.4018 17.8407C37.9554 17.8407 38.4966 18.0046 38.9569 18.3118C39.4172 18.619 39.776 19.0556 39.9878 19.5664C40.1997 20.0772 40.2551 20.6393 40.1471 21.1815C40.0391 21.7238 39.7725 22.2219 39.3811 22.6129C38.9896 23.0038 38.4909 23.2701 37.9479 23.3779C37.4049 23.4858 36.8421 23.4304 36.3307 23.2188C35.8192 23.0073 35.382 22.649 35.0745 22.1892C34.7669 21.7295 34.6027 21.1891 34.6027 20.6362C34.6027 19.8948 34.8976 19.1837 35.4226 18.6595C35.9475 18.1352 36.6595 17.8407 37.4018 17.8407ZM20.6073 31.8181C20.0537 31.8181 19.5125 31.6541 19.0522 31.347C18.5919 31.0398 18.2331 30.6032 18.0213 30.0924C17.8094 29.5816 17.754 29.0195 17.862 28.4772C17.97 27.935 18.2366 27.4369 18.628 27.0459C19.0195 26.6549 19.5182 26.3887 20.0612 26.2808C20.6042 26.173 21.167 26.2283 21.6784 26.4399C22.1899 26.6515 22.6271 27.0098 22.9346 27.4695C23.2422 27.9292 23.4064 28.4697 23.4064 29.0226C23.4064 29.764 23.1115 30.475 22.5865 30.9993C22.0616 31.5236 21.3496 31.8181 20.6073 31.8181ZM37.4018 40.2045C36.8482 40.2045 36.307 40.0406 35.8467 39.7334C35.3864 39.4262 35.0277 38.9896 34.8158 38.4788C34.6039 37.968 34.5485 37.4059 34.6565 36.8637C34.7645 36.3214 35.0311 35.8233 35.4226 35.4323C35.814 35.0414 36.3128 34.7751 36.8557 34.6673C37.3987 34.5594 37.9615 34.6148 38.473 34.8264C38.9844 35.0379 39.4216 35.3962 39.7292 35.856C40.0367 36.3157 40.2009 36.8561 40.2009 37.409C40.2009 38.1504 39.906 38.8615 39.3811 39.3857C38.8561 39.91 38.1442 40.2045 37.4018 40.2045Z" fill="#0072BC"/>
</svg>
