<svg width="80" height="80" viewBox="0 0 80 80" fill="none" xmlns="http://www.w3.org/2000/svg">
<g clip-path="url(#clip0_5803_92793)">
<path d="M58.7524 48.9042V31.3964C58.7524 29.9981 58.2563 29.5341 56.9031 29.5341H52.8048V31.493H53.0497C53.984 31.493 54.1644 31.7057 54.1644 32.8333V48.9171H58.7524V48.9042ZM60.7758 48.9042H65.3251V35.2691C65.3251 33.903 64.7967 33.4068 63.4629 33.4068H60.7693V48.9042H60.7758ZM52.154 48.9042V33.4068H49.454C48.1201 33.4068 47.5982 33.903 47.5982 35.2691V48.9042H52.154ZM69.6296 40.0053C69.6296 47.7186 64.0815 53.3311 56.4584 53.3311C48.8354 53.3311 43.2873 47.7186 43.2873 40.0053C43.2873 32.2921 48.8354 26.6795 56.4584 26.6795C64.0815 26.6795 69.6296 32.3243 69.6296 40.0053ZM72.3231 40.0053C72.3231 30.9324 65.5378 24.1406 56.4584 24.1406C47.3791 24.1406 40.5938 30.9324 40.5938 40.0053C40.5938 49.0782 47.3791 55.87 56.4584 55.87C65.5378 55.87 72.3231 49.0911 72.3231 40.0053Z" fill="#005DAC"/>
<path d="M37.2266 24.0312V55.7928" stroke="#005DAC" stroke-width="0.322191" stroke-miterlimit="10"/>
<path d="M29.255 39.7675C31.9291 38.9749 34.2296 36.784 34.2296 33.6845C34.2296 27.376 27.644 26.7188 23.5522 26.7188H7.6875V53.2673H13.2421V32.3442H29.764L27.934 35.8883C27.934 35.8883 27.5667 36.7002 26.3166 36.6487H20.2787C20.2787 36.6487 18.294 36.7518 18.1909 39.2262V44.8065C18.1909 44.8065 18.3585 42.6285 20.1885 42.461L28.2691 42.4288L26.5292 45.8182C26.5292 45.8182 26.1555 46.7268 25.0149 46.7332L20.1627 46.7912C20.1627 46.7912 18.5002 46.817 18.178 49.0208V53.2608H23.5522C27.9791 53.2415 34.2296 52.6229 34.2296 46.1082C34.2296 43.1247 32.5864 40.9467 29.255 39.761" fill="#005DAC"/>
</g>
<defs>
<clipPath id="clip0_5803_92793">
<rect width="80" height="80" fill="white"/>
</clipPath>
</defs>
</svg>
