<svg width="1312" height="553" viewBox="0 0 1312 553" fill="none" xmlns="http://www.w3.org/2000/svg">
<path opacity="0.15" d="M1103.93 97.4537L1103.72 97.5272L1025.76 202.517L870.059 254.939L869.849 255.013L791.888 360.003L636.187 412.424L635.977 412.498L558.016 517.488L453.341 552.737H456.48L558.856 518.265L559.066 518.191L637.027 413.201L792.728 360.779L792.938 360.706L870.898 255.716L1026.6 203.294L1026.81 203.221L1104.77 98.2305L1260.47 45.8089L1260.68 45.7354L1311.98 -23.3554V-25.4652L1259.64 45.0321L1103.94 97.4537H1103.93ZM1084.45 84.3326L1084.24 84.406L1006.28 189.396L850.576 241.818L850.366 241.891L772.406 346.882L616.705 399.303L616.495 399.377L538.534 504.367L394.884 552.737H398.022L539.374 505.144L539.584 505.07L617.545 400.08L773.245 347.648L773.455 347.574L851.416 242.584L1007.12 190.163L1007.33 190.089L1085.29 85.0988L1240.99 32.6772L1241.2 32.6037L1311.98 -62.7293V-64.8392L1240.15 31.9109L1084.45 84.3326ZM1162.19 -178.08L1084.23 -73.0898L928.526 -20.6682L928.316 -20.5947L850.356 84.3955L694.655 136.817L694.445 136.891L616.495 241.881L460.794 294.302L460.584 294.376L382.634 399.366L226.933 451.788L226.723 451.861L151.838 552.726H153.413L227.773 452.565L383.474 400.143L383.684 400.069L461.634 295.079L617.335 242.658L617.545 242.584L695.495 137.594L851.196 85.1723L851.405 85.0988L929.366 -19.8914L1085.07 -72.313L1085.28 -72.3865L1163.24 -177.377L1311.98 -227.458V-228.518L1162.4 -178.153L1162.19 -178.08ZM1181.68 -164.959L1103.72 -59.9686L948.019 -7.547L947.809 -7.47351L869.849 97.5167L714.148 149.938L713.938 150.012L635.988 255.002L480.287 307.424L480.077 307.497L402.127 412.487L246.426 464.909L246.216 464.982L181.072 552.726H182.636L247.255 465.686L402.956 413.264L403.166 413.191L481.116 308.2L636.817 255.779L637.027 255.705L714.977 150.715L870.678 98.2935L870.888 98.22L948.848 -6.77023L1104.55 -59.1919L1104.76 -59.2653L1182.72 -164.256L1311.97 -207.776V-208.836L1181.88 -165.032L1181.67 -164.959H1181.68ZM1279.12 215.639L1201.17 320.629L1045.47 373.05L1045.26 373.124L967.302 478.114L811.601 530.536L811.391 530.609L794.964 552.726H796.538L812.441 531.312L968.142 478.891L968.352 478.817L1046.31 373.827L1202.01 321.406L1202.22 321.332L1280.17 216.342L1311.98 205.635V204.575L1279.33 215.565L1279.12 215.639ZM1298.62 228.77L1220.67 333.76L1064.97 386.182L1064.76 386.256L986.795 491.246L831.094 543.667L830.884 543.741L824.208 552.737H825.783L831.934 544.444L987.635 492.023L987.845 491.949L1065.81 386.959L1221.51 334.537L1221.72 334.464L1299.67 229.474L1311.99 225.327V224.267L1298.84 228.697L1298.63 228.77H1298.62ZM1142.92 123.707L1142.71 123.78L1064.74 228.77L909.044 281.192L908.834 281.265L830.884 386.256L675.183 438.677L674.973 438.751L597.013 543.741L570.287 552.737H573.426L597.842 544.518L598.052 544.444L676.012 439.454L831.713 387.032L831.923 386.959L909.884 281.969L1065.58 229.547L1065.79 229.474L1143.76 124.483L1299.46 72.0616L1299.67 71.9882L1311.99 55.403V53.2932L1298.63 71.2954L1142.93 123.717L1142.92 123.707ZM1123.42 110.575L1123.21 110.648L1045.25 215.639L889.551 268.06L889.341 268.134L811.381 373.124L655.68 425.546L655.47 425.619L577.509 530.609L511.809 552.737H514.948L578.349 531.386L578.559 531.312L656.52 426.322L812.221 373.901L812.43 373.827L890.381 268.837L1046.08 216.415L1046.29 216.342L1124.25 111.352L1279.95 58.93L1280.16 58.8565L1311.97 16.0186V13.9087L1279.11 58.1532L1123.41 110.575H1123.42ZM1259.63 -112.464L1181.68 -7.47351L1025.98 44.9481L1025.77 45.0216L947.82 150.012L792.119 202.433L791.909 202.507L713.948 307.497L558.247 359.919L558.037 359.992L480.077 464.982L324.376 517.404L324.166 517.478L297.997 552.726H299.572L325.216 518.181L480.917 465.759L481.127 465.686L559.087 360.695L714.788 308.274L714.998 308.2L792.959 203.21L948.659 150.778L948.869 150.705L1026.82 45.7144L1182.52 -6.70724L1182.73 -6.7807L1260.69 -111.771L1311.99 -129.038V-130.099L1259.85 -112.548L1259.64 -112.474L1259.63 -112.464ZM1298.62 -86.2109L1220.67 18.7793L1064.97 71.2009L1064.76 71.2744L986.795 176.265L831.094 228.686L830.884 228.76L752.923 333.75L597.222 386.172L597.013 386.245L519.052 491.235L363.351 543.657L363.141 543.73L356.465 552.726H358.04L364.191 544.434L519.892 492.012L520.102 491.939L598.062 386.948L753.763 334.527L753.973 334.453L831.934 229.463L987.635 177.041L987.845 176.968L1065.81 71.9777L1221.51 19.5561L1221.72 19.4826L1299.67 -85.5076L1311.99 -89.6539V-90.7141L1298.84 -86.2844L1298.63 -86.2109H1298.62ZM1279.12 -99.3426L1201.16 5.64764L1045.46 58.0693L1045.25 58.1428L967.292 163.133L811.591 215.555L811.381 215.628L733.42 320.618L577.719 373.04L577.509 373.113L499.549 478.104L343.848 530.525L343.638 530.599L327.21 552.716H328.785L344.688 531.302L500.388 478.87L500.598 478.796L578.559 373.806L734.26 321.385L734.47 321.311L812.43 216.321L968.131 163.899L968.341 163.826L1046.3 58.8355L1202 6.40341L1202.21 6.32993L1280.16 -98.6603L1311.97 -109.367V-110.427L1279.32 -99.4371L1279.11 -99.3636L1279.12 -99.3426ZM1201.17 -151.838L1123.21 -46.8475L967.512 5.57416L967.302 5.64764L889.352 110.638L733.651 163.059L733.441 163.133L655.491 268.123L499.79 320.555L499.58 320.629L421.63 425.619L265.929 478.041L265.719 478.114L210.316 552.737H211.891L266.769 478.817L422.47 426.396L422.68 426.322L500.64 321.332L656.341 268.9L656.551 268.826L734.501 163.836L890.202 111.404L890.412 111.331L968.362 6.34045L1124.06 -46.0812L1124.27 -46.1547L1202.23 -151.145L1312 -188.105V-189.165L1201.4 -151.922L1201.19 -151.848L1201.17 -151.838ZM1142.92 -191.285L1142.71 -191.212L1064.74 -86.2215L909.044 -33.7998L908.834 -33.7263L830.884 71.2639L675.183 123.686L674.973 123.759L597.013 228.749L441.312 281.171L441.102 281.244L363.152 386.235L207.451 438.656L207.241 438.73L129.291 543.72L102.565 552.716H105.704L130.12 544.497L130.33 544.423L208.28 439.433L363.981 387.011L364.191 386.938L442.141 281.948L597.842 229.526L598.052 229.453L676.012 124.462L831.713 72.0407L831.923 71.9672L909.884 -33.023L1065.58 -85.4447L1065.79 -85.5181L1143.76 -190.508L1299.45 -242.93L1299.66 -243.003L1311.98 -259.589V-261.698L1298.62 -243.696L1142.92 -191.275V-191.285ZM1220.66 -138.717L1142.7 -33.7263L986.994 18.6953L986.784 18.7688L908.834 123.759L753.133 176.181L752.923 176.254L674.973 281.244L519.272 333.666L519.062 333.739L441.102 438.73L285.401 491.151L285.191 491.225L239.529 552.716H241.104L286.241 491.928L441.941 439.506L442.151 439.433L520.112 334.443L675.813 282.021L676.023 281.948L753.973 176.957L909.674 124.525L909.884 124.452L987.834 19.4616L1143.53 -32.9601L1143.74 -33.0335L1221.71 -138.024L1311.98 -168.423V-169.483L1220.87 -138.801L1220.66 -138.727V-138.717ZM1259.63 202.517L1181.68 307.508L1025.98 359.929L1025.77 360.003L947.82 464.993L792.119 517.415L791.909 517.488L765.74 552.737H767.315L792.959 518.191L948.659 465.77L948.869 465.696L1026.82 360.706L1182.52 308.284L1182.73 308.211L1260.68 203.221L1311.98 185.953V184.893L1259.84 202.444L1259.63 202.517ZM1279.12 -256.828L1123.42 -204.406L1123.21 -204.333L1045.25 -99.3426L889.551 -46.921L889.341 -46.8475L811.381 58.1428L655.68 110.564L655.47 110.638L577.509 215.628L421.808 268.05L421.598 268.123L343.638 373.113L187.937 425.535L187.727 425.609L109.777 530.599L44.0766 552.716H47.2152L110.617 531.365L110.827 531.292L188.777 426.301L344.478 373.88L344.688 373.806L422.638 268.816L578.339 216.394L578.549 216.321L656.509 111.331L812.21 58.909L812.42 58.8355L890.37 -46.1547L1046.07 -98.5763L1046.28 -98.6498L1124.24 -203.64L1279.94 -256.062L1280.15 -256.135L1311.96 -298.973V-301.083L1279.1 -256.838L1279.12 -256.828ZM1240.15 -125.585L1162.2 -20.5947L1006.5 31.8375L1006.29 31.9109L928.337 136.901L772.637 189.333L772.427 189.407L694.466 294.397L538.765 346.829L538.555 346.903L460.595 451.893L304.894 504.314L304.684 504.388L268.774 552.758H270.338L305.733 505.091L461.434 452.67L461.644 452.596L539.605 347.606L695.306 295.184L695.516 295.111L773.476 190.121L929.177 137.699L929.387 137.625L1007.34 32.6352L1163.04 -19.7864L1163.25 -19.8599L1241.2 -124.85L1311.98 -148.678V-149.738L1240.36 -125.627L1240.15 -125.553V-125.585ZM1201.17 478.125L1145.77 552.747H1147.35L1202.22 478.828L1311.99 441.868V440.808L1201.39 478.051L1201.18 478.125H1201.17ZM1220.66 491.246L1174.99 552.737H1176.57L1221.71 491.949L1311.98 461.55V460.49L1220.87 491.162L1220.66 491.235V491.246ZM1162.19 451.882L1087.29 552.747H1088.87L1163.24 452.586L1311.98 402.505V401.445L1162.4 451.809L1162.19 451.882ZM1240.15 504.377L1204.24 552.747H1205.81L1241.2 505.081L1311.98 481.253V480.193L1240.36 504.304L1240.15 504.377ZM1142.92 438.688L1142.71 438.761L1064.74 543.751L1038.02 552.747H1041.16L1065.57 544.528L1065.78 544.455L1143.74 439.464L1299.45 387.043L1299.66 386.969L1311.98 370.384V368.274L1298.62 386.276L1142.92 438.698V438.688ZM1298.62 543.751L1291.94 552.747H1293.52L1299.67 544.455L1311.99 540.308V539.248L1298.84 543.678L1298.63 543.751H1298.62ZM1279.12 530.62L1262.7 552.737H1264.27L1280.17 531.323L1311.98 520.616V519.556L1279.33 530.546L1279.12 530.62ZM1240.15 189.396L1162.2 294.386L1006.5 346.808L1006.29 346.882L928.337 451.872L772.637 504.293L772.427 504.367L736.517 552.737H738.081L773.466 505.07L929.167 452.649L929.377 452.575L1007.33 347.585L1163.03 295.163L1163.24 295.09L1241.19 190.1L1311.97 166.272V165.211L1240.35 189.323L1240.14 189.396H1240.15ZM1259.63 517.499L1233.46 552.747H1235.04L1260.68 518.202L1311.98 500.934V499.874L1259.84 517.425L1259.63 517.499ZM1123.42 425.556L1123.21 425.629L1045.25 530.62L979.552 552.737H982.69L1046.09 531.386L1046.3 531.312L1124.26 426.322L1279.96 373.901L1280.17 373.827L1311.98 330.989V328.879L1279.12 373.124L1123.42 425.546V425.556ZM1181.68 150.022L1103.72 255.013L948.019 307.434L947.809 307.508L869.849 412.498L714.148 464.919L713.938 464.993L648.794 552.737H650.358L714.977 465.696L870.678 413.275L870.888 413.201L948.838 308.211L1104.54 255.789L1104.75 255.716L1182.71 150.726L1311.96 107.205V106.145L1181.87 149.949L1181.66 150.022H1181.68ZM1220.66 176.265L1142.7 281.255L986.994 333.676L986.784 333.75L908.834 438.74L753.133 491.162L752.923 491.235L707.262 552.726H708.836L753.973 491.939L909.674 439.517L909.884 439.443L987.834 334.453L1143.53 282.032L1143.74 281.958L1221.71 176.968L1311.98 146.569V145.509L1220.87 176.191L1220.66 176.265ZM1201.17 163.143L1123.21 268.134L967.512 320.555L967.302 320.629L889.352 425.619L733.651 478.041L733.441 478.114L678.038 552.737H679.613L734.491 478.817L890.192 426.396L890.402 426.322L968.352 321.332L1124.05 268.91L1124.26 268.837L1202.22 163.847L1311.99 126.887V125.827L1201.39 163.07L1201.18 163.143H1201.17ZM1162.19 136.901L1084.23 241.891L928.526 294.313L928.316 294.386L850.356 399.377L694.655 451.798L694.445 451.872L619.56 552.737H621.134L695.495 452.575L851.196 400.153L851.405 400.08L929.366 295.09L1085.07 242.668L1085.28 242.595L1163.24 137.604L1311.98 87.5237V86.4634L1162.4 136.828L1162.19 136.901ZM1103.93 412.435L1103.72 412.508L1025.76 517.499L921.084 552.747H924.223L1026.6 518.275L1026.81 518.202L1104.77 413.212L1260.47 360.79L1260.68 360.717L1311.98 291.636V289.526L1259.64 360.024L1103.94 412.445L1103.93 412.435ZM1084.45 399.314L1084.24 399.387L1006.28 504.377L862.627 552.747H865.765L1007.12 505.154L1007.33 505.081L1085.29 400.091L1240.99 347.669L1241.2 347.595L1311.98 252.262V250.152L1240.15 346.892L1084.45 399.314ZM1181.68 465.003L1116.54 552.747H1118.11L1182.73 465.707L1311.98 422.187V421.126L1181.89 464.93L1181.68 465.003ZM91.3547 45.7354L247.056 -6.68625L247.266 -6.75974L325.226 -111.75L480.927 -164.172L481.137 -164.245L559.098 -269.235L714.799 -321.657L715.008 -321.73L721.695 -330.737H720.131L713.969 -322.434L558.268 -270.012L558.058 -269.939L480.098 -164.948L324.397 -112.527L324.187 -112.453L246.226 -7.46304L90.5255 44.9586L90.3155 45.0321L12.3549 150.022L0.0314895 154.169V155.229L13.3941 150.726L91.3547 45.7354ZM52.3797 176.978L130.34 71.9882L286.041 19.5665L286.251 19.4931L364.201 -85.4972L519.902 -137.919L520.112 -137.992L598.062 -243.003L753.763 -295.425L753.973 -295.499L780.152 -330.747H778.578L752.923 -296.202L597.222 -243.78L597.013 -243.707L519.052 -138.717L363.351 -86.2949L363.141 -86.2215L285.18 18.7688L129.48 71.1904L129.27 71.2639L51.309 176.254L0.0104952 193.522V194.582L52.1487 177.031L52.3587 176.957L52.3797 176.978ZM188.588 268.91L188.798 268.837L266.758 163.847L422.459 111.425L422.669 111.352L500.63 6.36142L656.331 -46.0602L656.541 -46.1337L734.491 -151.124L890.192 -203.546L890.402 -203.619L968.352 -308.609L1034.07 -330.737H1030.93L967.523 -309.386L967.313 -309.313L889.362 -204.322L733.661 -151.901L733.452 -151.827L655.501 -46.837L499.801 5.58466L499.591 5.65811L421.64 110.648L265.94 163.081L265.73 163.154L187.769 268.144L32.0576 320.566L31.8477 320.639L0.0419867 363.477V365.587L32.8869 321.343L188.588 268.921V268.91ZM169.105 255.789L169.315 255.716L247.276 150.726L402.977 98.304L403.187 98.2305L481.137 -6.75974L636.838 -59.1814L637.048 -59.2549L714.998 -164.245L870.699 -216.667L870.909 -216.74L948.859 -321.73L975.595 -330.737H972.456L948.019 -322.507L947.809 -322.434L869.849 -217.443L714.148 -165.022L713.938 -164.948L635.988 -59.9581L480.287 -7.5365L480.077 -7.46304L402.127 97.5272L246.426 149.959L246.216 150.033L168.255 255.023L12.5543 307.445L12.3444 307.518L0.0209923 324.114V326.224L13.3836 308.221L169.084 255.8L169.105 255.789ZM40.1402 -330.747H37.0017L12.5648 -322.518L12.3549 -322.444L0.0314895 -305.849V-303.739L13.3941 -321.741L40.1297 -330.747H40.1402ZM110.848 216.342L188.798 111.352L344.499 58.93L344.708 58.8565L422.659 -46.1337L578.359 -98.5553L578.569 -98.6288L656.53 -203.619L812.231 -256.041L812.441 -256.114L867.844 -330.737H866.28L811.402 -256.817L655.701 -204.396L655.491 -204.322L577.53 -99.3321L421.829 -46.9105L421.619 -46.837L343.669 58.1532L187.968 110.575L187.758 110.648L109.808 215.639L0.0419867 252.598V253.658L110.638 216.415L110.848 216.342ZM91.3547 203.221L169.305 98.2305L325.006 45.8089L325.216 45.7354L403.176 -59.2549L558.877 -111.676L559.087 -111.75L637.048 -216.74L792.749 -269.162L792.959 -269.235L838.62 -330.737H837.046L791.909 -269.939L636.208 -217.517L635.998 -217.443L558.037 -112.453L402.337 -60.0316L402.127 -59.9581L324.166 45.0321L168.465 97.4537L168.255 97.5272L90.305 202.517L0.0314895 232.917V233.977L91.1448 203.294L91.3547 203.221ZM71.8619 190.1L149.812 85.1093L305.513 32.6877L305.723 32.6142L383.684 -72.376L539.384 -124.798L539.594 -124.871L617.555 -229.861L773.256 -282.283L773.466 -282.356L809.386 -330.737H807.822L772.427 -283.06L616.726 -230.638L616.516 -230.565L538.555 -125.574L382.854 -73.1528L382.644 -73.0793L304.694 31.9109L148.993 84.3326L148.783 84.406L70.8332 189.396L0.0524838 213.235V214.295L71.673 190.184L71.8829 190.11L71.8619 190.1ZM52.3797 491.96L130.34 386.969L286.041 334.548L286.251 334.474L364.201 229.484L519.902 177.062L520.112 176.989L598.073 71.9987L753.774 19.5771L753.984 19.5036L831.934 -85.4866L987.635 -137.908L987.845 -137.982L1065.79 -243.003L1221.5 -295.425L1221.71 -295.499L1247.87 -330.747H1246.31L1220.67 -296.202L1064.95 -243.78L1064.74 -243.707L986.784 -138.717L831.083 -86.2949L830.873 -86.2215L752.913 18.7688L597.212 71.1904L597.002 71.2639L519.041 176.254L363.341 228.676L363.131 228.749L285.17 333.739L129.469 386.161L129.259 386.235L51.2985 491.225L0 508.492V509.552L52.1382 492.002L52.3482 491.928L52.3797 491.96ZM32.8869 478.828L110.848 373.838L266.548 321.416L266.758 321.343L344.719 216.352L500.42 163.931L500.63 163.857L578.59 58.8671L734.291 6.44537L734.501 6.37192L812.462 -98.6183L968.163 -151.04L968.373 -151.113L1046.33 -256.104L1202.03 -308.525L1202.24 -308.599L1218.67 -330.726H1217.11L1201.2 -309.302L1045.5 -256.88L1045.29 -256.807L967.333 -151.817L811.633 -99.3846L811.423 -99.3111L733.462 5.67914L577.761 58.1008L577.551 58.1743L499.591 163.164L343.89 215.586L343.68 215.66L265.719 320.65L110.018 373.071L109.808 373.145L31.8477 478.125L0.0419867 488.831V489.892L32.6769 478.901L32.8869 478.828ZM91.3547 360.717L247.056 308.295L247.266 308.221L325.226 203.231L480.927 150.81L481.137 150.736L559.098 45.7459L714.799 -6.67578L715.008 -6.74924L792.969 -111.739L948.67 -164.161L948.88 -164.235L1026.83 -269.225L1182.53 -321.646L1182.74 -321.72L1189.43 -330.726H1187.86L1181.7 -322.423L1026 -270.002L1025.79 -269.928L947.841 -164.938L792.14 -112.516L791.93 -112.443L713.969 -7.45255L558.268 44.9691L558.058 45.0426L480.098 150.033L324.397 202.465L324.187 202.538L246.226 307.529L90.5255 359.95L90.3155 360.024L12.3549 465.014L0.0419867 469.16V470.22L13.4046 465.717L91.3652 360.727L91.3547 360.717ZM208.081 282.042L208.29 281.969L286.251 176.978L441.952 124.546L442.162 124.473L520.123 19.4826L675.823 -32.9391L676.033 -33.0125L753.984 -138.003L909.684 -190.424L909.894 -190.498L987.845 -295.488L1092.54 -330.737H1089.4L987.015 -296.254L986.805 -296.181L908.845 -191.191L753.144 -138.769L752.934 -138.696L674.984 -33.7054L519.283 18.7163L519.073 18.7898L441.112 123.78L285.411 176.202L285.201 176.275L207.241 281.265L51.5399 333.687L51.33 333.76L0.0314895 402.851V404.961L52.3692 334.464L208.07 282.032L208.081 282.042ZM91.3547 518.202L169.305 413.212L325.006 360.79L325.216 360.717L403.176 255.726L558.877 203.305L559.087 203.231L637.048 98.241L792.749 45.8194L792.959 45.7459L870.919 -59.2444L1026.62 -111.666L1026.83 -111.739L1104.79 -216.73L1260.49 -269.151L1260.7 -269.225L1306.36 -330.726H1304.79L1259.65 -269.928L1103.95 -217.506L1103.74 -217.433L1025.78 -112.443L870.08 -60.0211L869.87 -59.9477L791.909 45.0426L636.208 97.4642L635.998 97.5377L558.037 202.528L402.337 254.95L402.127 255.023L324.166 360.013L168.465 412.435L168.255 412.508L90.305 517.499L0.0314895 547.898V548.958L91.1448 518.275L91.3547 518.202ZM227.563 295.163L227.773 295.09L305.723 190.1L461.424 137.678L461.634 137.604L539.594 32.6142L695.295 -19.8074L695.505 -19.8809L773.466 -124.871L929.167 -177.293L929.377 -177.366L1007.33 -282.356L1151 -330.737H1147.86L1006.49 -283.133L1006.28 -283.06L928.327 -178.07L772.626 -125.648L772.416 -125.574L694.456 -20.5842L538.755 31.8375L538.545 31.9109L460.584 136.901L304.883 189.323L304.673 189.396L226.713 294.386L71.0117 346.808L70.8018 346.882L0.0209923 442.215V444.324L71.8514 347.574L227.552 295.142L227.563 295.163ZM130.33 229.474L208.28 124.483L363.981 72.0616L364.191 71.9882L442.141 -33.002L597.842 -85.4237L598.052 -85.4972L676.012 -190.487L831.724 -242.93L831.934 -243.003L897.088 -330.747H895.514L830.884 -243.707L675.183 -191.285L674.973 -191.212L597.013 -86.2215L441.312 -33.7998L441.102 -33.7263L363.152 71.2639L207.451 123.686L207.241 123.759L129.291 228.749L0.0419867 272.269V273.33L130.13 229.526L130.34 229.453L130.33 229.474ZM71.8619 505.081L149.812 400.091L305.513 347.669L305.723 347.595L383.684 242.605L539.384 190.184L539.594 190.11L617.555 85.1198L773.256 32.6982L773.466 32.6248L851.427 -72.3655L1007.13 -124.787L1007.34 -124.861L1085.3 -229.851L1241 -282.272L1241.21 -282.346L1277.13 -330.726H1275.55L1240.16 -283.049L1084.46 -230.628L1084.25 -230.554L1006.29 -125.564L850.587 -73.1423L850.377 -73.0688L772.416 31.9214L616.715 84.3431L616.505 84.4166L538.545 189.407L382.844 241.828L382.634 241.902L304.684 346.892L148.983 399.314L148.773 399.387L70.8227 504.377L0.0419867 528.216V529.276L71.6625 505.165L71.8724 505.091L71.8619 505.081ZM32.8869 163.847L110.848 58.8565L266.548 6.43491L266.758 6.36142L344.719 -98.6288L500.42 -151.05L500.63 -151.124L578.59 -256.114L734.291 -308.536L734.501 -308.609L750.929 -330.737H749.365L733.462 -309.313L577.761 -256.891L577.551 -256.817L499.591 -151.827L343.89 -99.4056L343.68 -99.3321L265.719 5.65811L110.018 58.0798L109.808 58.1532L31.8477 163.143L0.0419867 173.85V174.911L32.6769 163.92L32.8869 163.847ZM71.8619 -124.882L149.823 -229.882L305.523 -282.304L305.733 -282.377L341.654 -330.758H340.09L304.694 -283.081L148.983 -230.649L148.773 -230.575L70.8227 -125.585L0.0419867 -101.746V-100.686L71.6625 -124.798L71.8724 -124.871L71.8619 -124.882ZM110.848 -98.6393L188.798 -203.63L344.499 -256.051L344.708 -256.125L400.111 -330.747H398.547L343.669 -256.828L187.968 -204.406L187.758 -204.333L109.808 -99.3426L0.0419867 -62.3829V-61.3228L110.638 -98.5658L110.848 -98.6393ZM130.33 -85.5076L208.28 -190.498L363.991 -242.93L364.201 -243.003L429.356 -330.747H427.781L363.152 -243.707L207.451 -191.285L207.241 -191.212L129.291 -86.2215L0.0419867 -42.7012V-41.641L130.13 -85.4447L130.34 -85.5181L130.33 -85.5076ZM91.3547 -111.76L169.305 -216.751L325.006 -269.172L325.216 -269.246L370.877 -330.747H369.303L324.166 -269.949L168.476 -217.527L168.266 -217.454L90.3155 -112.464L0.0419867 -82.0647V-81.0045L91.1553 -111.687L91.3652 -111.76H91.3547ZM149.823 -72.3865L227.783 -177.377L383.484 -229.809L383.694 -229.882L458.59 -330.758H457.026L382.644 -230.586L226.944 -178.164L226.734 -178.09L148.773 -73.1003L0.0314895 -23.009V-21.9488L149.602 -72.313L149.812 -72.3865H149.823ZM98.6081 -330.747H95.4695L32.0576 -309.397L31.8477 -309.323L0.0314895 -266.485V-264.375L32.8869 -308.62L98.6081 -330.747ZM215.533 -330.747H212.395L71.0327 -283.154L70.8227 -283.081L0.0314895 -187.737V-185.627L71.8619 -282.377L215.533 -330.758V-330.747ZM157.065 -330.747H153.927L51.5399 -296.275L51.33 -296.202L0.0314895 -227.111V-225.001L52.3797 -295.499L157.076 -330.747H157.065ZM169.105 -59.1919L169.315 -59.2653L247.276 -164.256L402.977 -216.677L403.187 -216.751L481.137 -321.741L507.873 -330.747H504.734L480.297 -322.518L480.087 -322.444L402.137 -217.454L246.436 -165.032L246.226 -164.959L168.266 -59.9686L12.5648 -7.5365L12.3549 -7.46304L0.0314895 9.1326V11.2425L13.3941 -6.75974L169.095 -59.1814L169.105 -59.1919ZM52.3797 -138.003L130.33 -243.003L286.031 -295.425L286.241 -295.499L312.42 -330.747H310.845L285.191 -296.202L129.501 -243.78L129.291 -243.707L51.33 -138.717L0.0314895 -121.449V-120.389L52.1697 -137.94L52.3797 -138.013V-138.003ZM227.563 -19.8179L227.773 -19.8914L305.723 -124.882L461.424 -177.303L461.634 -177.377L539.594 -282.367L683.266 -330.747H680.127L538.765 -283.144L538.555 -283.07L460.595 -178.08L304.894 -125.658L304.684 -125.585L226.723 -20.5947L71.0222 31.827L70.8122 31.9005L0.0314895 127.233V129.343L71.8619 32.5932L227.563 -19.8284V-19.8179ZM188.588 -46.0707L188.798 -46.1442L266.758 -151.134L422.459 -203.556L422.669 -203.63L500.63 -308.62L566.351 -330.747H563.212L499.801 -309.397L499.591 -309.323L421.64 -204.333L265.94 -151.911L265.73 -151.838L187.769 -46.8475L32.0576 5.58466L31.8477 5.65811L0.0419867 48.4961V50.606L32.8869 6.36142L188.588 -46.0602V-46.0707ZM208.081 -32.9391L208.29 -33.0125L286.251 -138.003L441.952 -190.424L442.162 -190.498L520.123 -295.488L624.819 -330.737H621.68L519.293 -296.254L519.083 -296.181L441.123 -191.191L285.422 -138.769L285.212 -138.696L207.251 -33.7054L51.5399 18.7058L51.33 18.7793L0.0314895 87.87V89.9799L52.3692 19.4826L208.07 -32.9496L208.081 -32.9391ZM32.8869 -151.134L110.848 -256.125L266.548 -308.546L266.758 -308.62L283.186 -330.747H281.622L265.719 -309.323L110.008 -256.901L109.798 -256.828L31.8477 -151.838L0.0419867 -141.131V-140.071L32.6769 -151.061L32.8869 -151.134ZM91.3547 -269.256L247.056 -321.678L247.266 -321.751L253.952 -330.758H252.378L246.216 -322.455L90.515 -270.023L90.305 -269.949L12.3549 -164.959L0.0314895 -160.813V-159.752L13.3941 -164.256L91.3547 -269.256ZM149.823 242.595L227.783 137.604L383.484 85.1828L383.694 85.1093L461.644 -19.8809L617.345 -72.3025L617.555 -72.376L695.505 -177.366L851.206 -229.788L851.416 -229.861L926.312 -330.737H924.748L850.377 -230.565L694.676 -178.143L694.466 -178.07L616.516 -73.0793L460.815 -20.6577L460.605 -20.5842L382.655 84.406L226.954 136.828L226.744 136.901L148.783 241.891L0.0419867 291.972V293.032L149.613 242.668L149.823 242.595Z" fill="url(#paint0_linear_6861_46498)"/>
<defs>
<linearGradient id="paint0_linear_6861_46498" x1="775.037" y1="-234.234" x2="707.934" y2="552.758" gradientUnits="userSpaceOnUse">
<stop stop-color="white"/>
<stop offset="1" stop-color="white" stop-opacity="0"/>
</linearGradient>
</defs>
</svg>
