<svg width="32" height="32" viewBox="0 0 32 32" fill="none" xmlns="http://www.w3.org/2000/svg">
<rect x="1.60156" y="5.59998" width="28.8" height="20.8" rx="5.6" stroke="#0072BC" stroke-width="2" stroke-linecap="round"/>
<path fill-rule="evenodd" clip-rule="evenodd" d="M12.6456 16.2214C13.1519 15.6779 13.4371 14.9651 13.4454 14.2224C13.4454 13.4208 13.1269 12.652 12.5599 12.0852C11.9928 11.5184 11.2238 11.2 10.4219 11.2C9.61998 11.2 8.85093 11.5184 8.2839 12.0852C7.71687 12.652 7.39832 13.4208 7.39832 14.2224C7.40667 14.9651 7.69189 15.6779 8.1982 16.2214C7.49323 16.5723 6.88657 17.0929 6.43279 17.7364C5.97901 18.3798 5.69235 19.1259 5.59858 19.9076C5.57524 20.1196 5.63713 20.3323 5.77064 20.4987C5.90415 20.6652 6.09833 20.7718 6.31047 20.7951C6.52262 20.8185 6.73534 20.7566 6.90185 20.6231C7.06836 20.4897 7.17501 20.2956 7.19835 20.0835C7.2938 19.3088 7.66936 18.5957 8.25426 18.0786C8.83917 17.5615 9.59305 17.2761 10.3739 17.2761C11.1547 17.2761 11.9086 17.5615 12.4935 18.0786C13.0784 18.5957 13.454 19.3088 13.5494 20.0835C13.5717 20.2885 13.6723 20.477 13.8303 20.6096C13.9883 20.7422 14.1915 20.8087 14.3973 20.7951H14.4853C14.695 20.771 14.8866 20.665 15.0185 20.5003C15.1503 20.3355 15.2117 20.1254 15.1892 19.9156C15.1024 19.138 14.8248 18.394 14.381 17.7495C13.9373 17.105 13.3411 16.5801 12.6456 16.2214ZM10.3979 15.6457C10.1163 15.6457 9.84101 15.5623 9.60687 15.4059C9.37273 15.2495 9.19023 15.0272 9.08247 14.7671C8.97471 14.5071 8.94651 14.2209 9.00145 13.9448C9.05639 13.6687 9.19199 13.4151 9.39111 13.216C9.59023 13.017 9.84393 12.8814 10.1201 12.8265C10.3963 12.7716 10.6826 12.7998 10.9427 12.9075C11.2029 13.0152 11.4253 13.1977 11.5817 13.4317C11.7382 13.6658 11.8217 13.941 11.8217 14.2225C11.8217 14.5999 11.6717 14.962 11.4047 15.2289C11.1376 15.4958 10.7755 15.6457 10.3979 15.6457Z" fill="#F58220"/>
<line x1="17.7969" y1="12.6" x2="25.3969" y2="12.6" stroke="#0072BC" stroke-width="2" stroke-linecap="round"/>
<line x1="17.7969" y1="18.2" x2="20.5969" y2="18.2" stroke="#0072BC" stroke-width="2" stroke-linecap="round"/>
</svg>
