<svg width="42" height="42" viewBox="0 0 42 42" fill="none" xmlns="http://www.w3.org/2000/svg">
<circle cx="21" cy="21" r="20.1" fill="#001F33" fill-opacity="0.1" stroke="#F3F9FC" stroke-width="0.2"/>
<g clip-path="url(#clip0_6865_79489)">
<path d="M21 16.5H29.25" stroke="white" stroke-width="2.25" stroke-linecap="round" stroke-linejoin="round"/>
<path d="M12.75 16.5H16.5" stroke="white" stroke-width="2.25" stroke-linecap="round" stroke-linejoin="round"/>
<path d="M18.75 19.5C20.4069 19.5 21.75 18.1569 21.75 16.5C21.75 14.8431 20.4069 13.5 18.75 13.5C17.0931 13.5 15.75 14.8431 15.75 16.5C15.75 18.1569 17.0931 19.5 18.75 19.5Z" fill="#EF860A"/>
<path d="M21 25.3242H12.75" stroke="white" stroke-width="2.25" stroke-linecap="round" stroke-linejoin="round"/>
<path d="M29.25 25.3242H25.5" stroke="white" stroke-width="2.25" stroke-linecap="round" stroke-linejoin="round"/>
<path d="M22.9355 28.3241C21.2787 28.3241 19.9355 26.981 19.9355 25.3241C19.9355 23.6672 21.2787 22.3241 22.9355 22.3241C24.5924 22.3241 25.9355 23.6672 25.9355 25.3241C25.9355 26.981 24.5924 28.3241 22.9355 28.3241Z" fill="#EF860A"/>
</g>
<defs>
<clipPath id="clip0_6865_79489">
<rect width="24" height="24" fill="white" transform="translate(9 9)"/>
</clipPath>
</defs>
</svg>
