<svg width="40" height="40" viewBox="0 0 40 40" fill="none" xmlns="http://www.w3.org/2000/svg">
<path d="M33 30.3073C33.0017 30.8597 32.8487 31.4015 32.5582 31.8713C32.2678 32.3412 31.8515 32.7203 31.3567 32.9656L31.3035 32.9898L26.6115 34.9884C26.5652 35.0088 26.517 35.025 26.4677 35.0367L18.7344 36.9701C18.6578 36.9898 18.5791 36.9999 18.5 37.0003H5.93333C5.42058 37.0003 4.92883 36.7966 4.56626 36.434C4.20369 36.0714 4 35.5797 4 35.0669V30.2336C4 29.7209 4.20369 29.2291 4.56626 28.8665C4.92883 28.504 5.42058 28.3003 5.93333 28.3003H9.40004L12.1333 25.5658C12.4917 25.2058 12.9179 24.9204 13.3872 24.7261C13.8566 24.5317 14.3598 24.4323 14.8677 24.4336H20.9167C21.4273 24.4336 21.9313 24.5491 22.3909 24.7715C22.8505 24.9939 23.2538 25.3175 23.5706 25.718C23.8873 26.1184 24.1094 26.5854 24.22 27.0839C24.3306 27.5824 24.327 28.0994 24.2094 28.5963L29.265 27.4339C29.7052 27.3173 30.1662 27.3034 30.6125 27.3932C31.0589 27.4829 31.4787 27.674 31.8395 27.9516C32.2004 28.2292 32.4927 28.586 32.6939 28.9944C32.8951 29.4028 32.9998 29.852 33 30.3073ZM31.0667 30.3073C31.0665 30.1475 31.0295 29.9898 30.9586 29.8466C30.8877 29.7034 30.7847 29.5784 30.6577 29.4814C30.5306 29.3844 30.383 29.318 30.2261 29.2873C30.0692 29.2566 29.9074 29.2624 29.7532 29.3044L29.7157 29.3141L21.6199 31.1761C21.5489 31.192 21.4764 31.2001 21.4036 31.2003H17.5333C17.277 31.2003 17.0311 31.0984 16.8498 30.9171C16.6685 30.7359 16.5667 30.49 16.5667 30.2336C16.5667 29.9772 16.6685 29.7314 16.8498 29.5501C17.0311 29.3688 17.277 29.2669 17.5333 29.2669H20.9167C21.3012 29.2669 21.67 29.1142 21.942 28.8422C22.2139 28.5703 22.3667 28.2015 22.3667 27.8169C22.3667 27.4324 22.2139 27.0636 21.942 26.7916C21.67 26.5197 21.3012 26.3669 20.9167 26.3669H14.8677C14.6138 26.3661 14.3622 26.4158 14.1275 26.5131C13.8929 26.6104 13.68 26.7533 13.5011 26.9336L10.7667 29.6669V35.0669H18.3792L25.9228 33.1807L30.5144 31.2256C30.6816 31.1376 30.8214 31.0055 30.9187 30.8436C31.0161 30.6817 31.0672 30.4962 31.0667 30.3073Z" fill="white"/>
<path fill-rule="evenodd" clip-rule="evenodd" d="M16.341 4.64293C17.9444 3.57158 19.8295 2.99976 21.7578 2.99976C24.3428 3.00249 26.8212 4.03059 28.6491 5.85848C30.477 7.68637 31.5051 10.1647 31.5078 12.7498C31.5078 14.6781 30.936 16.5632 29.8646 18.1666C28.7933 19.7699 27.2706 21.0196 25.489 21.7576C23.7074 22.4955 21.747 22.6886 19.8557 22.3124C17.9644 21.9362 16.2271 21.0076 14.8635 19.6441C13.5 18.2805 12.5714 16.5432 12.1952 14.6519C11.819 12.7606 12.012 10.8002 12.75 9.01859C13.4879 7.23701 14.7376 5.71427 16.341 4.64293ZM20.8259 6.30461C20.6306 6.49996 20.5208 6.76491 20.5208 7.04118V12.2495C20.5208 12.5258 20.6306 12.7907 20.8259 12.9861C21.0213 13.1814 21.2862 13.2912 21.5625 13.2912C21.8388 13.2912 22.1037 13.1814 22.2991 12.9861C22.4944 12.7907 22.6042 12.5258 22.6042 12.2495V7.04118C22.6042 6.76491 22.4944 6.49996 22.2991 6.30461C22.1037 6.10926 21.8388 5.99951 21.5625 5.99951C21.2862 5.99951 21.0213 6.10926 20.8259 6.30461ZM20.6944 18.2362C20.9514 18.4079 21.2535 18.4995 21.5625 18.4995C21.9769 18.4995 22.3743 18.3349 22.6674 18.0419C22.9604 17.7488 23.125 17.3514 23.125 16.937C23.125 16.628 23.0334 16.3259 22.8617 16.0689C22.69 15.812 22.446 15.6117 22.1604 15.4935C21.8749 15.3752 21.5608 15.3442 21.2577 15.4045C20.9546 15.4648 20.6762 15.6136 20.4576 15.8322C20.2391 16.0507 20.0903 16.3291 20.03 16.6322C19.9697 16.9353 20.0007 17.2494 20.1189 17.535C20.2372 17.8205 20.4375 18.0645 20.6944 18.2362Z" fill="white"/>
</svg>
