<svg width="24" height="24" viewBox="0 0 24 24" fill="none" xmlns="http://www.w3.org/2000/svg">
<path d="M11.9969 1.20005C6.0322 1.20005 1.19688 6.03538 1.19688 12.0001C1.19688 17.9647 6.0322 22.8001 11.9969 22.8C17.9616 22.8 22.7969 17.9647 22.7969 12C22.7969 6.03538 17.9615 1.20005 11.9969 1.20005Z" fill="white"/>
<path d="M11.9922 11.1L11.9922 17.4" stroke="url(#paint0_linear_6609_163292)" stroke-width="2.4" stroke-linecap="round" stroke-linejoin="round"/>
<path d="M11.9937 5.70002C11.2482 5.70002 10.6438 6.30444 10.6438 7.05002C10.6438 7.79561 11.2482 8.40002 11.9938 8.40002C12.7393 8.40002 13.3437 7.79561 13.3437 7.05002C13.3437 6.30444 12.7393 5.70002 11.9937 5.70002Z" fill="url(#paint1_linear_6609_163292)" stroke="url(#paint2_linear_6609_163292)" stroke-width="0.6"/>
<defs>
<linearGradient id="paint0_linear_6609_163292" x1="11.4922" y1="17.4" x2="11.4922" y2="11.1" gradientUnits="userSpaceOnUse">
<stop stop-color="#FF834E"/>
<stop offset="1" stop-color="#FF5B15"/>
</linearGradient>
<linearGradient id="paint1_linear_6609_163292" x1="11.9938" y1="8.40002" x2="11.9937" y2="5.70002" gradientUnits="userSpaceOnUse">
<stop stop-color="#FF834E"/>
<stop offset="1" stop-color="#FF5B15"/>
</linearGradient>
<linearGradient id="paint2_linear_6609_163292" x1="11.9938" y1="8.40002" x2="11.9937" y2="5.70002" gradientUnits="userSpaceOnUse">
<stop stop-color="#FF834E"/>
<stop offset="1" stop-color="#FF5B15"/>
</linearGradient>
</defs>
</svg>
