<svg width="20" height="20" viewBox="0 0 20 20" fill="none" xmlns="http://www.w3.org/2000/svg">
<path d="M-0.00390669 10.002C-0.00390645 15.512 4.48609 20.002 9.99609 20.002C15.5061 20.002 19.9961 15.512 19.9961 10.002C19.9961 4.49195 15.5061 0.00195245 9.99609 0.00195269C4.48609 0.00195293 -0.00390693 4.49195 -0.00390669 10.002ZM9.26609 5.94195L12.7961 9.47195C12.9461 9.62195 13.0161 9.81195 13.0161 10.002C13.0161 10.192 12.9461 10.382 12.7961 10.532L9.26609 14.062C9.12496 14.2014 8.93452 14.2797 8.73609 14.2797C8.53766 14.2797 8.34723 14.2014 8.20609 14.062C7.91609 13.772 7.91609 13.292 8.20609 13.002L11.2061 10.002L8.20609 7.00195C7.91609 6.71195 7.91609 6.23195 8.20609 5.94195C8.49609 5.65195 8.96609 5.65195 9.26609 5.94195Z" fill="url(#paint0_linear_2768_68742)"/>
<defs>
<linearGradient id="paint0_linear_2768_68742" x1="-0.00390669" y1="10.002" x2="19.9961" y2="10.002" gradientUnits="userSpaceOnUse">
<stop stop-color="#FF834E"/>
<stop offset="1" stop-color="#FF5B15"/>
</linearGradient>
</defs>
</svg>
