<svg width="24" height="24" viewBox="0 0 24 24" fill="none" xmlns="http://www.w3.org/2000/svg">
<path d="M21.5843 16.5047C21.4016 15.1558 20.5918 13.9727 19.4004 13.3145L19.0498 13.1168L19.05 13.1166C18.5508 12.8436 17.9767 12.7389 17.4133 12.8182C16.8497 12.8974 16.3269 13.1567 15.9226 13.557L14.8442 14.6354C13.578 13.9485 12.4261 13.0693 11.4292 12.0294C10.3913 11.0307 9.51231 9.87902 8.82298 8.61435L9.90139 7.53594C10.3031 7.13231 10.5632 6.60947 10.6425 6.04561C10.7219 5.48172 10.6165 4.90731 10.3417 4.40858L10.1441 4.05804C9.47771 2.85399 8.27474 2.04187 6.90881 1.87429C5.56003 1.67419 4.19699 2.13186 3.24225 3.10541L3.09842 3.24021C2.32347 3.99938 1.86445 5.02349 1.8133 6.10702C1.64254 10.2682 3.02651 13.5122 6.46858 16.9451C9.6948 20.1803 12.7592 21.6003 16.5787 21.6003H17.3067C18.3877 21.554 19.4115 21.1015 20.1735 20.3331L20.3173 20.1893L20.3172 20.1895C21.3031 19.2337 21.7738 17.8647 21.5844 16.5048L21.5843 16.5047ZM19.041 18.9042L18.9062 19.039C18.4601 19.4907 17.8598 19.7572 17.2256 19.785C13.5681 19.9557 10.8179 18.7604 7.73561 15.6781C4.65309 12.5956 3.45778 9.84546 3.61069 6.18811C3.6477 5.55774 3.92031 4.96422 4.37451 4.5255L4.50931 4.3728C4.98428 3.89317 5.63182 3.62446 6.30672 3.62688C6.42633 3.61771 6.54653 3.61771 6.66614 3.62688C7.45931 3.73791 8.15107 4.22251 8.52644 4.92991L8.72413 5.28933V5.28948C8.80958 5.44414 8.84253 5.62212 8.81816 5.79711C8.79393 5.97208 8.7136 6.13456 8.58932 6.26006L7.07053 7.77885C6.95665 7.89499 6.8763 8.04002 6.83839 8.19831C6.80033 8.35658 6.80605 8.52223 6.85494 8.67747C7.59604 10.4297 8.70562 12.0021 10.1081 13.2877C11.3938 14.6902 12.966 15.7997 14.7183 16.541C14.8737 16.5897 15.0392 16.5954 15.1975 16.5575C15.3559 16.5195 15.5008 16.4393 15.6171 16.3252L17.1359 14.8065C17.2613 14.6822 17.4237 14.602 17.5987 14.5776C17.7736 14.5534 17.9518 14.5864 18.1064 14.6717L18.4659 14.8693C19.1703 15.2539 19.6517 15.9484 19.765 16.7427C19.8783 17.5373 19.6099 18.3386 19.041 18.9045L19.041 18.9042Z" fill="#F58220"/>
<path d="M14.1519 3.62703C15.5034 3.9884 16.7357 4.69959 17.7249 5.68876C18.7142 6.67793 19.4253 7.91029 19.7867 9.26177C19.841 9.45615 19.9592 9.62661 20.1223 9.74559C20.2853 9.8646 20.4837 9.92523 20.6853 9.91771C20.7599 9.92644 20.8354 9.92644 20.9101 9.91771C21.1505 9.8649 21.3587 9.71581 21.486 9.50518C21.6134 9.29455 21.6488 9.04088 21.5841 8.80332C21.1389 7.12974 20.2594 5.60344 19.0349 4.37875C17.8102 3.15425 16.2839 2.27473 14.6103 1.82954C14.2892 1.74769 13.9488 1.84338 13.7174 2.08048C13.486 2.31759 13.3986 2.66017 13.4882 2.97911C13.5777 3.29806 13.8308 3.54508 14.1518 3.62693L14.1519 3.62703Z" fill="#0072BC"/>
<path d="M13.2083 7.05116C13.963 7.25743 14.6507 7.657 15.2034 8.21053C15.7569 8.7633 16.1565 9.45098 16.3628 10.2056C16.4154 10.4017 16.5329 10.5741 16.696 10.6949C16.8593 10.8155 17.0585 10.8775 17.2614 10.8706C17.3391 10.8795 17.4174 10.8795 17.4951 10.8706C17.7268 10.8095 17.9246 10.6585 18.0444 10.4509C18.1643 10.2433 18.1962 9.99652 18.1331 9.76528C17.8465 8.69753 17.2837 7.72415 16.5011 6.94319C15.7186 6.16222 14.744 5.60118 13.6757 5.31683C13.4428 5.24536 13.1908 5.27169 12.9774 5.38949C12.7643 5.50744 12.6079 5.70694 12.5446 5.94225C12.4813 6.17756 12.516 6.4285 12.6412 6.63764C12.7664 6.84661 12.9711 6.99601 13.2084 7.05121L13.2083 7.05116Z" fill="#0072BC"/>
</svg>
