<svg width="25" height="24" viewBox="0 0 25 24" fill="none" xmlns="http://www.w3.org/2000/svg">
<path d="M17.3168 14.4635C17.1811 14.4353 17.0412 14.4339 16.9049 14.4592C16.7686 14.4844 16.6387 14.536 16.5226 14.6109C16.4065 14.6857 16.3065 14.7825 16.2282 14.8955C16.1499 15.0086 16.095 15.1358 16.0665 15.2698C16.038 15.4039 16.0365 15.5421 16.0621 15.6768C16.0877 15.8114 16.1399 15.9397 16.2157 16.0544C16.2915 16.169 16.3895 16.2679 16.5039 16.3452C16.6184 16.4225 16.7471 16.4767 16.8828 16.5049C19.2285 16.9642 20.1998 17.791 20.1998 18.1176C20.1998 18.7096 17.6682 20.159 12.9665 20.159C8.26484 20.159 5.73317 18.7096 5.73317 18.1176C5.73317 17.791 6.7045 16.9642 9.05017 16.4641C9.18587 16.4359 9.31463 16.3816 9.42909 16.3043C9.54356 16.227 9.64149 16.1282 9.71729 16.0135C9.79309 15.8988 9.84529 15.7705 9.87089 15.6359C9.89649 15.5013 9.895 15.363 9.8665 15.229C9.83801 15.095 9.78306 14.9678 9.7048 14.8547C9.62655 14.7417 9.52651 14.6449 9.41041 14.57C9.2943 14.4952 9.1644 14.4436 9.02813 14.4183C8.89185 14.393 8.75187 14.3945 8.61617 14.4227C5.47484 15.1371 3.6665 16.4743 3.6665 18.1176C3.6665 20.802 8.3475 22.2004 12.9665 22.2004C17.5855 22.2004 22.2665 20.802 22.2665 18.1176C22.2665 16.4743 20.4582 15.1371 17.3168 14.4635Z" fill="#0072BC"/>
<path fill-rule="evenodd" clip-rule="evenodd" d="M11.9467 11.5938V16.9492C11.9467 17.2276 12.0542 17.4947 12.2455 17.6917C12.4367 17.8886 12.6962 17.9992 12.9667 17.9992C13.2372 17.9992 13.4967 17.8886 13.6879 17.6917C13.8792 17.4947 13.9867 17.2276 13.9867 16.9492V11.5938C15.225 11.3336 16.3254 10.6093 17.0744 9.56131C17.8235 8.51334 18.1679 7.21637 18.0409 5.92185C17.9138 4.62732 17.3244 3.42747 16.3869 2.5549C15.4494 1.68233 14.2306 1.19922 12.9667 1.19922C11.7028 1.19922 10.484 1.68233 9.54649 2.5549C8.60897 3.42747 8.01957 4.62732 7.89254 5.92185C7.76551 7.21637 8.10991 8.51334 8.85897 9.56131C9.60803 10.6093 10.7084 11.3336 11.9467 11.5938ZM14.6667 3.82919C14.1635 3.48304 13.5719 3.29828 12.9667 3.29828C12.1551 3.29828 11.3768 3.63018 10.803 4.22095C10.2291 4.81173 9.90671 5.613 9.90671 6.44848C9.90671 7.07153 10.0862 7.68059 10.4224 8.19864C10.7586 8.71669 11.2366 9.12046 11.7957 9.35889C12.3548 9.59732 12.9701 9.65971 13.5637 9.53815C14.1573 9.4166 14.7025 9.11658 15.1304 8.67601C15.5584 8.23545 15.8498 7.67414 15.9679 7.06306C16.086 6.45198 16.0254 5.81858 15.7938 5.24295C15.5622 4.66733 15.17 4.17533 14.6667 3.82919Z" fill="#F58220"/>
</svg>
