<svg width="25" height="24" viewBox="0 0 25 24" fill="none" xmlns="http://www.w3.org/2000/svg">
<path d="M17.9336 3H6.73359C5.99099 3 5.2788 3.28446 4.75369 3.79081C4.22859 4.29716 3.93359 4.98391 3.93359 5.7V15.6C3.93359 16.3161 4.22859 17.0028 4.75369 17.5092C5.2788 18.0155 5.99099 18.3 6.73359 18.3H9.15093L11.6709 20.739C11.7581 20.8224 11.8616 20.8884 11.9753 20.9332C12.089 20.978 12.2108 21.0007 12.3336 21C12.556 21 12.7712 20.9234 12.9403 20.784L15.9456 18.3H17.9336C18.6762 18.3 19.3884 18.0155 19.9135 17.5092C20.4386 17.0028 20.7336 16.3161 20.7336 15.6V5.7C20.7336 4.98391 20.4386 4.29716 19.9135 3.79081C19.3884 3.28446 18.6762 3 17.9336 3ZM18.8669 15.6C18.8669 15.8387 18.7686 16.0676 18.5936 16.2364C18.4185 16.4052 18.1811 16.5 17.9336 16.5H15.6003C15.3778 16.5 15.1627 16.5766 14.9936 16.716L12.3803 18.876L10.1963 16.761C10.1091 16.6776 10.0056 16.6116 9.89191 16.5668C9.77819 16.522 9.65643 16.4993 9.53359 16.5H6.73359C6.48606 16.5 6.24866 16.4052 6.07363 16.2364C5.89859 16.0676 5.80026 15.8387 5.80026 15.6V5.7C5.80026 5.4613 5.89859 5.23238 6.07363 5.0636C6.24866 4.89482 6.48606 4.8 6.73359 4.8H17.9336C18.1811 4.8 18.4185 4.89482 18.5936 5.0636C18.7686 5.23238 18.8669 5.4613 18.8669 5.7V15.6Z" fill="#0072BC"/>
<path d="M14.7417 11.3704C15.1658 10.8591 15.3993 10.2251 15.4043 9.57037C15.4043 8.78507 15.0808 8.03193 14.5049 7.47663C13.9291 6.92134 13.148 6.60938 12.3337 6.60938C11.5193 6.60938 10.7382 6.92134 10.1624 7.47663C9.58651 8.03193 9.26299 8.78507 9.26299 9.57037C9.26805 10.2251 9.50147 10.8591 9.92566 11.3704C9.09371 11.8586 8.441 12.5855 8.05899 13.4494C8.00552 13.559 7.97555 13.6779 7.97086 13.7989C7.96618 13.9199 7.98688 14.0406 8.03173 14.1538C8.07657 14.2669 8.14464 14.3702 8.23185 14.4573C8.31906 14.5445 8.42363 14.6138 8.53928 14.6611C8.65492 14.7084 8.77928 14.7326 8.90489 14.7325C9.0305 14.7323 9.15478 14.7077 9.27029 14.6601C9.38579 14.6125 9.49015 14.5429 9.5771 14.4555C9.66405 14.3681 9.73181 14.2646 9.77632 14.1514C9.99084 13.6678 10.3471 13.2552 10.8014 12.9643C11.2557 12.6733 11.7883 12.5166 12.3337 12.5134C12.8806 12.5148 13.4152 12.6707 13.8713 12.9618C14.3275 13.2529 14.6852 13.6664 14.9003 14.1514C14.9718 14.314 15.0913 14.4528 15.244 14.5505C15.3967 14.6481 15.5758 14.7002 15.759 14.7004C15.8839 14.6981 16.0073 14.6737 16.123 14.6284C16.3506 14.5351 16.5305 14.3586 16.6233 14.1376C16.716 13.9165 16.714 13.669 16.6177 13.4494C16.2332 12.5842 15.5771 11.8571 14.7417 11.3704ZM12.3337 10.7134C12.0951 10.7134 11.862 10.645 11.6638 10.5171C11.4656 10.3891 11.3113 10.2072 11.2204 9.99456C11.1296 9.78189 11.1063 9.548 11.1535 9.32254C11.2007 9.09709 11.3163 8.89024 11.4857 8.72823C11.655 8.56623 11.8704 8.45637 12.1045 8.41259C12.3387 8.36882 12.5811 8.3931 12.8009 8.48235C13.0207 8.57161 13.2081 8.72182 13.3393 8.91392C13.4705 9.10603 13.5395 9.33137 13.5377 9.56137C13.5352 9.86773 13.4073 10.1607 13.1817 10.3765C12.9562 10.5923 12.6514 10.7134 12.3337 10.7134Z" fill="#F58220"/>
</svg>
