<svg width="25" height="25" viewBox="0 0 25 25" fill="none" xmlns="http://www.w3.org/2000/svg">
<g clip-path="url(#clip0_5245_3476)">
<path d="M12.7041 12.8535L21.7041 3.85352" stroke="white" stroke-width="2.25" stroke-linecap="round" stroke-linejoin="round"/>
<path d="M19.0679 6.48976C17.4988 4.92233 15.4057 3.99007 13.191 3.87211C10.9762 3.75415 8.79602 4.45883 7.06927 5.85072C5.34252 7.24261 4.19105 9.22354 3.83613 11.4128C3.48121 13.6022 3.94787 15.8454 5.14644 17.7115C6.34502 19.5777 8.19095 20.935 10.3295 21.5228C12.4681 22.1106 14.7485 21.8874 16.7325 20.8959C18.7164 19.9045 20.264 18.2149 21.0779 16.1517C21.8918 14.0886 21.9145 11.7974 21.1417 9.71851" stroke="white" stroke-width="2" stroke-linecap="round" stroke-linejoin="round"/>
<path d="M15.8857 9.6712C15.1767 8.96234 14.2513 8.51056 13.2563 8.38753C12.2613 8.2645 11.2537 8.47727 10.3934 8.99208C9.53311 9.50689 8.86936 10.2942 8.50747 11.2292C8.14559 12.1642 8.10631 13.1933 8.39585 14.1531C8.6854 15.113 9.28719 15.9487 10.1057 16.5276C10.9243 17.1065 11.9127 17.3954 12.9142 17.3486C13.9157 17.3018 14.8729 16.9219 15.6339 16.2692C16.3948 15.6164 16.9161 14.7283 17.1148 13.7456" stroke="white" stroke-width="2" stroke-linecap="round" stroke-linejoin="round"/>
</g>
<defs>
<clipPath id="clip0_5245_3476">
<rect width="24" height="24" fill="white" transform="translate(0.704102 0.853516)"/>
</clipPath>
</defs>
</svg>
