<svg width="24" height="24" viewBox="0 0 24 24" fill="none" xmlns="http://www.w3.org/2000/svg">
<path d="M14.091 11.0079C14.071 10.9641 14.0359 10.929 13.9921 10.909L12.3987 10.182C12.2428 10.1108 12.2428 9.88922 12.3987 9.81805L13.9921 9.091C14.0359 9.07101 14.071 9.03588 14.091 8.99207L14.818 7.39875C14.8892 7.24278 15.1108 7.24278 15.182 7.39875L15.909 8.99207C15.929 9.03588 15.9641 9.07101 16.0079 9.091L17.6013 9.81805C17.7572 9.88922 17.7572 10.1108 17.6013 10.182L16.0079 10.909C15.9641 10.929 15.929 10.9641 15.909 11.0079L15.182 12.6013C15.1108 12.7572 14.8892 12.7572 14.818 12.6013L14.091 11.0079ZM3.81805 14.6013C3.88922 14.7572 4.11078 14.7572 4.18195 14.6013L4.909 13.0079C4.92899 12.9641 4.96412 12.929 5.00793 12.909L6.60125 12.182C6.75722 12.1108 6.75722 11.8892 6.60125 11.818L5.00793 11.091C4.96412 11.071 4.92899 11.0359 4.909 10.9921L4.18195 9.39875C4.11078 9.24278 3.88922 9.24278 3.81805 9.39875L3.091 10.9921C3.07101 11.0359 3.03588 11.071 2.99207 11.091L1.39875 11.818C1.24278 11.8892 1.24278 12.1108 1.39875 12.182L2.99207 12.909C3.03588 12.929 3.07101 12.9641 3.091 13.0079L3.81805 14.6013ZM8.31777 9.59709C8.38868 9.75387 8.61132 9.75387 8.68223 9.59709L9.55892 7.65873C9.57895 7.61443 9.61443 7.57895 9.65873 7.55892L11.5971 6.68223C11.7539 6.61132 11.7539 6.38868 11.5971 6.31777L9.65873 5.44108C9.61443 5.42105 9.57895 5.38557 9.55892 5.34127L8.68223 3.40291C8.61132 3.24613 8.38868 3.24613 8.31777 3.40291L7.44108 5.34127C7.42105 5.38557 7.38557 5.42105 7.34127 5.44108L5.40291 6.31777C5.24613 6.38868 5.24613 6.61132 5.40291 6.68223L7.34127 7.55892C7.38557 7.57895 7.42105 7.61443 7.44108 7.65873L8.31777 9.59709Z" fill="white"/>
<path d="M4 21.5L9.79289 15.7071C10.1834 15.3166 10.8166 15.3166 11.2071 15.7071L13.7929 18.2929C14.1834 18.6834 14.8166 18.6834 15.2071 18.2929L22.5 11" stroke="white" stroke-width="2.5" stroke-linecap="round"/>
</svg>
