<svg width="24" height="24" viewBox="0 0 24 24" fill="none" xmlns="http://www.w3.org/2000/svg">
<path d="M12.1808 9.74316C12.0585 9.73538 11.9321 9.73581 11.8115 9.74327C10.0659 9.65522 8.68506 8.21589 8.68506 6.44C8.68506 4.60967 10.163 3.125 12.0001 3.125C13.8279 3.125 15.3138 4.61003 15.3151 6.43762C15.3065 8.21611 13.9239 9.65406 12.1808 9.74316Z" stroke="white" stroke-width="2.25" stroke-linecap="round" stroke-linejoin="round"/>
<path d="M7.16021 14.56C4.74021 16.18 4.74021 18.82 7.16021 20.43C9.91021 22.27 14.4202 22.27 17.1702 20.43C19.5902 18.81 19.5902 16.17 17.1702 14.56C14.4302 12.73 9.92021 12.73 7.16021 14.56Z" stroke="white" stroke-width="2.25" stroke-linecap="round" stroke-linejoin="round"/>
</svg>
