<svg width="24" height="24" viewBox="0 0 24 24" fill="none" xmlns="http://www.w3.org/2000/svg">
<path d="M19.8002 8.67059C19.79 8.57964 19.7704 8.49004 19.7417 8.40329V8.31419C19.6948 8.2124 19.6323 8.11883 19.5564 8.03699L13.7064 2.09699C13.6258 2.01998 13.5337 1.95649 13.4334 1.90889H13.3457C13.2466 1.85121 13.1373 1.81419 13.0239 1.79999H7.1252C6.34944 1.79999 5.60545 2.1129 5.05691 2.66988C4.50836 3.22686 4.2002 3.9823 4.2002 4.76999V18.63C4.2002 19.4177 4.50836 20.1731 5.05691 20.7301C5.60545 21.2871 6.34944 21.6 7.1252 21.6H16.8752C17.651 21.6 18.3949 21.2871 18.9435 20.7301C19.492 20.1731 19.8002 19.4177 19.8002 18.63V8.72999C19.8002 8.72999 19.8002 8.72999 19.8002 8.67059ZM13.9502 5.17589L16.4754 7.73999H14.9252C14.6666 7.73999 14.4186 7.63568 14.2358 7.45002C14.0529 7.26436 13.9502 7.01255 13.9502 6.74999V5.17589ZM17.8502 18.63C17.8502 18.8926 17.7475 19.1444 17.5646 19.33C17.3818 19.5157 17.1338 19.62 16.8752 19.62H7.1252C6.86661 19.62 6.61861 19.5157 6.43577 19.33C6.25292 19.1444 6.1502 18.8926 6.1502 18.63V4.76999C6.1502 4.50742 6.25292 4.25561 6.43577 4.06995C6.61861 3.88429 6.86661 3.77999 7.1252 3.77999H12.0002V6.74999C12.0002 7.53768 12.3084 8.29311 12.8569 8.8501C13.4055 9.40708 14.1494 9.71999 14.9252 9.71999H17.8502V18.63Z" fill="white"/>
<rect x="8.40039" y="14.4" width="6.6" height="2.4" rx="1.2" fill="white"/>
</svg>
